<svg xmlns="http://www.w3.org/2000/svg" width="20.4" height="24" viewBox="0 0 20.4 24">
  <path id="Notification" d="M9.654,23.971a4.194,4.194,0,0,1-2.8-1.568.845.845,0,0,1,.132-1.177.821.821,0,0,1,1.162.133,2.554,2.554,0,0,0,3.587.414,2.344,2.344,0,0,0,.428-.417.822.822,0,0,1,1.164-.128.845.845,0,0,1,.126,1.177,4.014,4.014,0,0,1-.715.7,4.2,4.2,0,0,1-3.086.865Zm.538-4.664a49.853,49.853,0,0,1-5.377-.292,5.88,5.88,0,0,1-3.7-1.828A4.878,4.878,0,0,1,0,13.994V13.71a4.909,4.909,0,0,1,.8-2.454l.08-.1A4.629,4.629,0,0,0,2,8.967l-.018.074,0-.642L2,7.684c.011-.314.028-.6.05-.868A7.183,7.183,0,0,1,4.721,1.952,8.558,8.558,0,0,1,10.157,0h.086a8.559,8.559,0,0,1,5.435,1.952,7.224,7.224,0,0,1,2.686,4.87c.021.238.03.455.033.777v.808c0,.131,0,.248.005.369l.011.236.054.224a4.689,4.689,0,0,0,.871,1.717l.181.213.074.095A4.862,4.862,0,0,1,20.4,13.75l0,.484a4.878,4.878,0,0,1-1.158,3,5.745,5.745,0,0,1-3.656,1.784,49.953,49.953,0,0,1-5.391.292ZM3.7,6.968c-.013.146-.023.307-.034.507l-.018.561-.009,1.1-.017.171a6.311,6.311,0,0,1-1.464,2.92h0l-.009.01h0l-.094.154a3.231,3.231,0,0,0-.376,1.127l-.02.229,0,.263a3.2,3.2,0,0,0,.69,2.058A4.193,4.193,0,0,0,4.982,17.35a48.423,48.423,0,0,0,5.211.282,48.842,48.842,0,0,0,5.228-.283,4.124,4.124,0,0,0,2.588-1.237,3.2,3.2,0,0,0,.735-2.129v-.2a3.1,3.1,0,0,0-.521-1.588l.018.031-.165-.194a6.353,6.353,0,0,1-1.217-2.4l-.077-.331L16.769,9.2c-.013-.175-.02-.319-.023-.481l0-1.085c0-.274-.009-.457-.025-.656-.28-2.923-3.184-5.3-6.474-5.3h-.086C6.865,1.674,3.966,4.049,3.7,6.968Z" transform="translate(0)" fill="#72809d"/>
</svg>
