<svg xmlns="http://www.w3.org/2000/svg" width="20" height="25" viewBox="0 0 20 25">
  <path id="Profile" d="M8.345,24.955c-.151,0-.258,0-.355,0l-.18-.007a2.768,2.768,0,0,1-.5-.059,19.248,19.248,0,0,1-2.916-.423L4.07,24.4C2.134,23.967.917,23.189.351,22.019A3.67,3.67,0,0,1,0,20.454a3.6,3.6,0,0,1,.359-1.58c.584-1.172,1.969-2.014,4-2.435a20.926,20.926,0,0,1,2.924-.414c.9-.079,1.81-.118,2.712-.118s1.814.039,2.712.118l.576.048a21.519,21.519,0,0,1,2.341.365c2.159.444,3.435,1.224,4.018,2.453a3.641,3.641,0,0,1,0,3.13c-.579,1.223-1.89,2.021-4,2.437l-.585.122a19.639,19.639,0,0,1-2.35.306c-.894.076-1.8.115-2.7.115C9.453,25,8.891,24.985,8.345,24.955ZM7.428,17.83a19.407,19.407,0,0,0-2.7.381,4.012,4.012,0,0,0-2.756,1.46,1.772,1.772,0,0,0-.174.78,1.815,1.815,0,0,0,.173.784c.318.659,1.281,1.162,2.784,1.456l.441.093a19.381,19.381,0,0,0,2.342.312,2.3,2.3,0,0,0,.359.042l.492.008c.537.029,1.082.044,1.62.044.847,0,1.708-.036,2.558-.109a17.927,17.927,0,0,0,2.7-.394l.281-.06c1.326-.3,2.179-.78,2.466-1.385a1.828,1.828,0,0,0,0-1.574c-.306-.645-1.26-1.15-2.761-1.459a19.466,19.466,0,0,0-2.69-.379l-.016,0c-.844-.074-1.7-.111-2.547-.111S8.284,17.755,7.428,17.83ZM3.365,6.669A6.64,6.64,0,1,1,10,13.338,6.662,6.662,0,0,1,3.365,6.669Zm1.8,0A4.838,4.838,0,1,0,10,1.81,4.853,4.853,0,0,0,5.167,6.669Z" fill="#72809d"/>
</svg>
