<svg xmlns="http://www.w3.org/2000/svg" width="23" height="24" viewBox="0 0 23 24">
  <g id="Setting" transform="translate(0.043 0.208)">
    <path id="Setting-2" data-name="Setting" d="M10.751,24a3.219,3.219,0,0,1-2.283-.933,2.938,2.938,0,0,1-.89-2.1l-.011-.177a1.253,1.253,0,0,0-.179-.507,1.352,1.352,0,0,0-.832-.622,1.389,1.389,0,0,0-.345-.044,1.508,1.508,0,0,0-.744.205l-.215.1a3.264,3.264,0,0,1-2.171.153,3.154,3.154,0,0,1-1.9-1.457L.408,17.333l-.1-.191a3.025,3.025,0,0,1,1.245-3.957l.129-.078A1.337,1.337,0,0,0,2.276,12a1.363,1.363,0,0,0-.727-1.186L1.361,10.7A3.022,3.022,0,0,1,.436,6.609l.785-1.255A3.214,3.214,0,0,1,3.981,3.8a3.174,3.174,0,0,1,1.541.4l.161.083A1.319,1.319,0,0,0,6.2,4.4,1.37,1.37,0,0,0,7.587,3.05l.01-.232A3.045,3.045,0,0,1,8.508.905,3.233,3.233,0,0,1,10.751,0h1.495a3.242,3.242,0,0,1,2.278.934,2.985,2.985,0,0,1,.9,2.159l.01.177a1.218,1.218,0,0,0,.174.5,1.385,1.385,0,0,0,1.181.66,1.487,1.487,0,0,0,.745-.206l.2-.1a3.231,3.231,0,0,1,4.1,1.253l.742,1.251a.913.913,0,0,1,.052.1l.069.134a3.041,3.041,0,0,1-1.07,3.845l-.312.19a1.329,1.329,0,0,0-.4.427,1.293,1.293,0,0,0-.142,1.017,1.37,1.37,0,0,0,.678.834l.2.126a3.075,3.075,0,0,1,1.244,1.726,2.985,2.985,0,0,1-.329,2.349l-.8,1.293-.12.181a3.219,3.219,0,0,1-2.617,1.328,3.142,3.142,0,0,1-1.533-.4L17.33,19.7a1.433,1.433,0,0,0-.526-.12h-.009a1.391,1.391,0,0,0-.971.391,1.347,1.347,0,0,0-.4.994l-.01.206A3.158,3.158,0,0,1,12.245,24ZM7.019,17.987a3.14,3.14,0,0,1,1.914,1.426,2.962,2.962,0,0,1,.415,1.226l.024.424a1.37,1.37,0,0,0,1.379,1.2h1.495a1.363,1.363,0,0,0,1.38-1.2l.007-.131a3.051,3.051,0,0,1,.927-2.188,3.212,3.212,0,0,1,2.255-.9h.017a3.308,3.308,0,0,1,1.268.289l.382.19a1.429,1.429,0,0,0,.562.114,1.36,1.36,0,0,0,1.111-.549l.088-.133.78-1.263a1.315,1.315,0,0,0-.367-1.746l-.33-.2a3.074,3.074,0,0,1-1.285-1.754,3.01,3.01,0,0,1,.32-2.334,3.122,3.122,0,0,1,.96-1.005l.194-.119a1.32,1.32,0,0,0,.573-1.7L21,7.47l-.015-.033-.708-1.194a1.408,1.408,0,0,0-1.208-.68,1.332,1.332,0,0,0-.414.065l-.134.053-.125.062a3.255,3.255,0,0,1-2.4.326,3.174,3.174,0,0,1-1.933-1.416,2.962,2.962,0,0,1-.415-1.226l-.015-.3a1.334,1.334,0,0,0-.392-.978,1.412,1.412,0,0,0-.991-.407h-1.5a1.388,1.388,0,0,0-.975.393,1.319,1.319,0,0,0-.394.793l-.016.366A3.156,3.156,0,0,1,4.9,5.844l-.233-.119a1.413,1.413,0,0,0-1.9.514L1.976,7.493a1.312,1.312,0,0,0,.377,1.758l.316.194A3.053,3.053,0,0,1,4.065,12a3.09,3.09,0,0,1-1.4,2.555l-.188.116a1.307,1.307,0,0,0-.572,1.7l.068.127.763,1.277a1.373,1.373,0,0,0,.833.643,1.474,1.474,0,0,0,.389.052,1.327,1.327,0,0,0,.523-.1l.132-.063a3.231,3.231,0,0,1,2.405-.313ZM7.466,12a4.04,4.04,0,0,1,8.076,0,4.04,4.04,0,0,1-8.076,0Zm1.789,0A2.25,2.25,0,1,0,11.5,9.816,2.22,2.22,0,0,0,9.255,12Z" transform="translate(-0.043 -0.208)" fill="#72809d"/>
  </g>
</svg>
