<svg xmlns="http://www.w3.org/2000/svg" xmlns:xlink="http://www.w3.org/1999/xlink" width="363.218" height="296.964" viewBox="0 0 363.218 296.964">
  <defs>
    <linearGradient id="linear-gradient" x1="0.5" y1="1" x2="0.5" gradientUnits="objectBoundingBox">
      <stop offset="0" stop-color="gray" stop-opacity="0.251"/>
      <stop offset="0.54" stop-color="gray" stop-opacity="0.122"/>
      <stop offset="1" stop-color="gray" stop-opacity="0.102"/>
    </linearGradient>
    <linearGradient id="linear-gradient-2" x1="0.5" y1="1" x2="0.5" y2="0" xlink:href="#linear-gradient"/>
  </defs>
  <g id="undraw_medicine_b-1-ol" transform="translate(0.06 0.006)">
    <ellipse id="Ellipse_1469" data-name="Ellipse 1469" cx="31.994" cy="5.937" rx="31.994" ry="5.937" transform="translate(88.957 284.916)" fill="#6c63ff" opacity="0.1"/>
    <ellipse id="Ellipse_1470" data-name="Ellipse 1470" cx="39.924" cy="5.937" rx="39.924" ry="5.937" transform="translate(254.944 285.083)" fill="#6c63ff" opacity="0.1"/>
    <path id="Path_651" data-name="Path 651" d="M59.683,396.83H93.007v52.481H62.123c-.082.539-.161,1.081-.246,1.624H93.007v42.324c-.056-.019-.105-.042-.158-.064-.88-.4-1.753-.827-2.627-1.282l-.558-.292q-1.313-.717-2.627-1.518c-.305-.186-.611-.379-.913-.577A56.592,56.592,0,0,1,73.03,477.7c-.112-.125-.217-.258-.328-.379-.532-.668-1.054-1.343-1.56-2.034l-.558-.759c-.6-.846-1.175-1.715-1.737-2.595-.082-.129-.161-.258-.246-.379a59.556,59.556,0,0,1-5.648-11.8c-.046-.125-.085-.262-.128-.379q-.676-2.011-1.2-4.059c-.151-.573-.3-1.138-.42-1.734-.046-.174-.085-.345-.121-.516C59.22,444.659,59,435.922,59,427.246V424.21c0-3.509.036-7.041.089-10.57,0-.914.033-1.825.049-2.743q.069-3.494.2-6.988c.02-.649.046-1.294.076-1.939q0-.558.049-1.115C59.538,399.5,59.6,398.165,59.683,396.83Z" transform="translate(-54.816 -268.525)" fill="#6c63ff" opacity="0.1"/>
    <path id="Path_652" data-name="Path 652" d="M125.179,199.144H106.9a161.447,161.447,0,0,1,9.722-15.464c2.715-3.855,5.582-7.61,8.557-11.23Z" transform="translate(-86.988 -129.272)" fill="#6c63ff" opacity="0.1"/>
    <path id="Path_653" data-name="Path 653" d="M94.619,247.09v55.186H61.4c0-.159.023-.322.033-.482.03-.436.059-.873.092-1.305.036-.508.076-1.021.118-1.517s.089-1.1.138-1.654.1-1.108.151-1.658.105-1.1.164-1.647.112-1.1.174-1.647c.049-.455.1-.907.154-1.362.076-.641.154-1.286.24-1.923a2.035,2.035,0,0,1,.036-.285q.9-7,2.446-13.855A113.791,113.791,0,0,1,69.267,260.9a112.125,112.125,0,0,1,6.2-13.795Z" transform="translate(-56.428 -175.595)" fill="#6c63ff" opacity="0.1"/>
    <path id="Path_654" data-name="Path 654" d="M186.8,186.931v52.484h71.176V186.931Zm0,54.1v45.071c.407.1.811.194,1.212.273.545.121,1.087.231,1.642.326.105.019.213.038.328.049.217.042.44.076.657.11.548.087,1.093.159,1.642.216.259.03.522.057.785.08l.634.057h0c.345.03.686.053,1.024.064.21,0,.42.023.637.03H197.7a7.808,7.808,0,0,0,.844-.03h.02a3.838,3.838,0,0,0,.588-.03,1.2,1.2,0,0,0,.164,0,2.943,2.943,0,0,0,.486-.027h.115l1.1-.1c.361-.038.726-.087,1.093-.133l.749-.1a57.943,57.943,0,0,0,9.013-2.216c6.639-2.14,13.134-5.133,19.77-7.326,8.58-2.826,18.059-4.215,26.35-.759V241.036ZM257.976,128.5V58.63a79.837,79.837,0,0,0-23.126,3.134C216.828,67,200.656,78.343,186.8,92.835V128.5h3.572v1.62H186.8v55.193h71.176V130.122H205.04V128.5ZM349.4,104.9a26.608,26.608,0,0,1-12.9-4.333c-7.667-4.818-13.791-12.258-20.633-18.537A88.05,88.05,0,0,0,265.926,59.1v69.4H367.533l.253-.307Zm9.256-1.9,9.814,12.444V99.74a35.018,35.018,0,0,0-9.8,3.248Zm9.814,194.3V241.036H347.557c-.056-.239-.112-.482-.177-.725.062.243.115.486.174.725H265.939v40.689c.775.664,1.54,1.362,2.3,2.071h0c.818.759,1.625,1.559,2.436,2.345l.818.782c.391.379.785.759,1.182,1.115q1.182,1.108,2.387,2.185c.4.379.8.721,1.208,1.077A164.425,164.425,0,0,0,296.5,306.594q2.374,1.518,4.791,2.963c1.074.634,2.154,1.263,3.238,1.874q2.443,1.377,4.925,2.656h0A162.93,162.93,0,0,0,357.4,330.222q5.513.941,11.069,1.48V297.295h.328ZM265.939,130.122v55.189H368.482V130.122Zm0,56.809v52.484H368.482V186.931Zm110.5-87.259v17.52l12.527-15.881a119.575,119.575,0,0,0-12.527-1.658Zm0,87.278v52.465h99.736V186.931Zm99.372,114.514.351-60.429H376.441V332.3a154.851,154.851,0,0,0,19.274-.266h.112q4.6-.334,9.151-.971h.069a150.963,150.963,0,0,0,47.02-14.5m43.342-121c-.374-1.021-.765-2.033-1.162-3.035-.742-1.9-1.527-3.741-2.334-5.585H484.13v52.462H503.8c-.01-14.857-3.264-30.032-8.386-43.861ZM484.13,241.055v51.976a74.735,74.735,0,0,0,13.6-21.189,82.379,82.379,0,0,0,6.061-30.795Zm0-69.4v13.658h7.053q-3.2-7.052-7.043-13.677Zm-67.64-61.688c-.519-.228-1.038-.459-1.56-.683a128.42,128.42,0,0,0-16.848-5.85l-19.169,24.307h0l-.368.451.246.311h68.224A140.376,140.376,0,0,0,416.5,109.95Zm32.526,20.172H377.84l-1.4,1.48v53.691h99.749V159.3a152.724,152.724,0,0,0-27.164-29.182Z" transform="translate(-140.653 -58.63)" fill="#6c63ff" opacity="0.1"/>
    <path id="Path_655" data-name="Path 655" d="M94.619,320.46v27.35H61.4c0-.159.023-.323.033-.482.03-.436.059-.873.092-1.305.036-.508.076-1.021.118-1.518s.089-1.1.138-1.654.1-1.108.151-1.658.105-1.1.164-1.647.112-1.1.174-1.647c.049-.455.1-.907.154-1.362.076-.641.154-1.286.24-1.923a2.032,2.032,0,0,1,.036-.285q.9-7,2.446-13.855Z" transform="translate(-56.428 -221.129)" fill="#6c63ff" opacity="0.1"/>
    <path id="Path_656" data-name="Path 656" d="M59.683,396.83H93.007v52.481H62.123c-.082.539-.161,1.081-.246,1.624H93.007v42.324c-.056-.019-.105-.042-.158-.064-.88-.4-1.753-.827-2.627-1.282l-.558-.292q-1.313-.717-2.627-1.518c-.305-.186-.611-.379-.913-.577A56.592,56.592,0,0,1,73.03,477.7c-.112-.125-.217-.258-.328-.379-.532-.668-1.054-1.343-1.56-2.034l-.558-.759c-.6-.846-1.175-1.715-1.737-2.595-.082-.129-.161-.258-.246-.379a59.556,59.556,0,0,1-5.648-11.8c-.046-.125-.085-.262-.128-.379q-.676-2.011-1.2-4.059c-.151-.573-.3-1.138-.42-1.734-.046-.174-.085-.345-.121-.516C59.22,444.659,59,435.922,59,427.246V424.21c0-3.509.036-7.041.089-10.57,0-.914.033-1.825.049-2.743q.069-3.494.2-6.988c.02-.649.046-1.294.076-1.939q0-.558.049-1.115C59.538,399.5,59.6,398.165,59.683,396.83Z" transform="translate(-54.816 -268.525)" fill="#6c63ff" opacity="0.1"/>
    <path id="Path_657" data-name="Path 657" d="M164.616,183.09v47.287H139.56V183.09h3.572V167.08H157.8v16.01Z" transform="translate(-93.413 -103.696)" fill="#6c63ff" opacity="0.1"/>
    <rect id="Rectangle_5380" data-name="Rectangle 5380" width="25.053" height="52.481" transform="translate(46.15 128.301)" fill="#6c63ff" opacity="0.1"/>
    <path id="Path_658" data-name="Path 658" d="M186.8,539.44h25.056v43.63a57.835,57.835,0,0,1-9.013,2.212l-.749.106c-.368.049-.732.091-1.093.133s-.736.072-1.1.1h-.115c-.158,0-.328.023-.483.026h-.167c-.2,0-.394.023-.591.031h0c-.279.019-.558.023-.844.026h-2.325l-.634-.026c-.328,0-.683-.042-1.024-.068h0l-.63-.053-.785-.083c-.552-.057-1.1-.129-1.642-.216l-.657-.106-.328-.053c-.548-.1-1.09-.2-1.642-.326-.4-.08-.8-.178-1.212-.273Z" transform="translate(-140.653 -357.031)" fill="#6c63ff" opacity="0.1"/>
    <rect id="Rectangle_5381" data-name="Rectangle 5381" width="20.66" height="52.868" transform="translate(207.169 73.81)" fill="#6c63ff" opacity="0.1"/>
    <path id="Path_659" data-name="Path 659" d="M483.127,338.19v52.484H380.58V368.036H435.2v13.354h27.263v-43.2Z" transform="translate(-255.294 -209.889)" fill="#6c63ff" opacity="0.1"/>
    <path id="Path_660" data-name="Path 660" d="M530.692,594.525h-.328v34.429q-5.549-.543-11.065-1.476a162.959,162.959,0,0,1-47.959-16.17q-6.61-3.437-12.95-7.5a165.1,165.1,0,0,1-20.239-15.293q-2.417-2.14-4.771-4.378c-1.087-1.036-2.167-2.1-3.26-3.13-.759-.709-1.524-1.407-2.3-2.075V538.255h81.611c-.056-.243-.112-.486-.171-.725.062.239.121.482.177.725h20.926V594.5C530.475,594.507,530.583,594.518,530.692,594.525Z" transform="translate(-302.534 -355.845)" fill="#6c63ff" opacity="0.1"/>
    <path id="Path_661" data-name="Path 661" d="M876.682,211.351H863.22v-4.833h6.035v-14.4q.785.33,1.563.679v13.719h5.864Z" transform="translate(-594.971 -141.479)" fill="#6c63ff" opacity="0.1"/>
    <path id="Path_662" data-name="Path 662" d="M842.717,302.276h-66.09l.023.019-.03-.019H764.36V249.408h3.474v39.077H783.71V265.342h13.114V247.09h13.462v18.267H823.4V288.5h19.317Z" transform="translate(-528.572 -175.595)" fill="#6c63ff" opacity="0.1"/>
    <path id="Path_663" data-name="Path 663" d="M764.36,396.82V449.3h78.357V396.82Zm99.628,114.264.108-41.543H842.717v-18.59H764.36v91.243a154.843,154.843,0,0,0,19.274-.266h.112q4.6-.334,9.151-.971h.069a150.964,150.964,0,0,0,47.02-14.5" transform="translate(-528.572 -268.519)" fill="#6c63ff" opacity="0.1"/>
    <path id="Path_664" data-name="Path 664" d="M1093.749,539.44h18.279a82.635,82.635,0,0,1-6.064,30.791,74.762,74.762,0,0,1-13.594,21.189V558.034h1.379Z" transform="translate(-748.88 -357.031)" fill="#6c63ff" opacity="0.1"/>
    <path id="Path_665" data-name="Path 665" d="M1114.859,463.411H1096.57V419.55h9.9C1111.589,433.379,1114.843,448.554,1114.859,463.411Z" transform="translate(-751.701 -282.625)" fill="#6c63ff" opacity="0.1"/>
    <rect id="Rectangle_5382" data-name="Rectangle 5382" width="11.069" height="16.575" transform="translate(216.764 88.507)" fill="#6c63ff" opacity="0.1"/>
    <rect id="Rectangle_5383" data-name="Rectangle 5383" width="11.069" height="3.817" transform="translate(216.764 122.864)" fill="#6c63ff" opacity="0.1"/>
    <rect id="Rectangle_5384" data-name="Rectangle 5384" width="11.069" height="11.135" transform="translate(216.764 128.301)" fill="#6c63ff" opacity="0.1"/>
    <rect id="Rectangle_5385" data-name="Rectangle 5385" width="11.069" height="16.575" transform="translate(216.764 157.222)" fill="#6c63ff" opacity="0.1"/>
    <rect id="Rectangle_5386" data-name="Rectangle 5386" width="11.069" height="16.575" transform="translate(216.764 191.579)" fill="#6c63ff" opacity="0.1"/>
    <path id="Path_666" data-name="Path 666" d="M717.485,666.891a1.57,1.57,0,0,1,.328.023h-.328v3.851H706.42V654.17h11.065Z" transform="translate(-489.656 -428.234)" fill="#6c63ff" opacity="0.1"/>
    <path id="Path_667" data-name="Path 667" d="M717.485,744.71v12.8q-5.549-.542-11.065-1.476V744.71Z" transform="translate(-489.656 -484.424)" fill="#6c63ff" opacity="0.1"/>
    <rect id="Rectangle_5387" data-name="Rectangle 5387" width="47.437" height="1.218" transform="translate(125.286 179.568)" fill="#6c63ff" opacity="0.1"/>
    <rect id="Rectangle_5388" data-name="Rectangle 5388" width="47.437" height="4.666" transform="translate(125.286 182.406)" fill="#6c63ff" opacity="0.1"/>
    <rect id="Rectangle_5389" data-name="Rectangle 5389" width="47.437" height="7.504" transform="translate(125.286 202.369)" fill="#6c63ff" opacity="0.1"/>
    <path id="Path_668" data-name="Path 668" d="M479.948,652.15v7.5h-37.1q-2.417-2.132-4.774-4.378c-1.087-1.036-2.164-2.1-3.261-3.126Z" transform="translate(-307.229 -426.98)" fill="#6c63ff" opacity="0.1"/>
    <path id="Path_669" data-name="Path 669" d="M537.784,712.221v7.5h-3.917q-6.6-3.441-12.947-7.508Z" transform="translate(-365.065 -464.254)" fill="#6c63ff" opacity="0.1"/>
    <rect id="Rectangle_5390" data-name="Rectangle 5390" width="9.338" height="10.79" transform="translate(255.066 133.389)" fill="#6c63ff" opacity="0.1"/>
    <rect id="Rectangle_5391" data-name="Rectangle 5391" width="9.338" height="10.79" transform="translate(52.875 83.116)" fill="#6c63ff" opacity="0.1"/>
    <rect id="Rectangle_5392" data-name="Rectangle 5392" width="9.338" height="10.79" transform="translate(52.875 108.178)" fill="#6c63ff" opacity="0.1"/>
    <rect id="Rectangle_5393" data-name="Rectangle 5393" width="9.338" height="10.79" transform="translate(52.875 133.241)" fill="#6c63ff" opacity="0.1"/>
    <rect id="Rectangle_5394" data-name="Rectangle 5394" width="9.338" height="10.79" transform="translate(52.875 158.299)" fill="#6c63ff" opacity="0.1"/>
    <rect id="Rectangle_5395" data-name="Rectangle 5395" width="9.338" height="10.79" transform="translate(52.875 183.362)" fill="#6c63ff" opacity="0.1"/>
    <rect id="Rectangle_5396" data-name="Rectangle 5396" width="9.338" height="10.79" transform="translate(52.875 208.424)" fill="#6c63ff" opacity="0.1"/>
    <rect id="Rectangle_5397" data-name="Rectangle 5397" width="9.338" height="10.79" transform="translate(290.715 133.389)" fill="#6c63ff" opacity="0.1"/>
    <rect id="Rectangle_5398" data-name="Rectangle 5398" width="9.338" height="10.79" transform="translate(255.066 160.003)" fill="#6c63ff" opacity="0.1"/>
    <rect id="Rectangle_5399" data-name="Rectangle 5399" width="9.338" height="10.79" transform="translate(290.715 160.003)" fill="#6c63ff" opacity="0.1"/>
    <rect id="Rectangle_5400" data-name="Rectangle 5400" width="9.338" height="10.79" transform="translate(255.066 186.613)" fill="#6c63ff" opacity="0.1"/>
    <rect id="Rectangle_5401" data-name="Rectangle 5401" width="9.338" height="10.79" transform="translate(290.715 186.613)" fill="#6c63ff" opacity="0.1"/>
    <rect id="Rectangle_5402" data-name="Rectangle 5402" width="9.338" height="10.79" transform="translate(255.066 213.227)" fill="#6c63ff" opacity="0.1"/>
    <rect id="Rectangle_5403" data-name="Rectangle 5403" width="9.338" height="10.79" transform="translate(290.715 213.227)" fill="#6c63ff" opacity="0.1"/>
    <rect id="Rectangle_5404" data-name="Rectangle 5404" width="9.338" height="10.79" transform="translate(255.066 239.841)" fill="#6c63ff" opacity="0.1"/>
    <rect id="Rectangle_5405" data-name="Rectangle 5405" width="9.338" height="10.79" transform="translate(290.715 239.841)" fill="#6c63ff" opacity="0.1"/>
    <path id="Path_670" data-name="Path 670" d="M775.83,709.288V702.33h9.335V708.3Z" transform="translate(-520.764 -435.879)" fill="#6c63ff" opacity="0.1"/>
    <path id="Path_671" data-name="Path 671" d="M65.24,357v6.173H97.2V357Zm3.185,5.786H65.818v-5.406h2.627Zm3.182,0H68.98v-5.406h2.627Zm3.175,0H72.155v-5.406h2.627Zm3.182,0H75.34v-5.406h2.627Zm3.178,0H78.515v-5.406h2.627Zm3.182,0H81.7v-5.406h2.627Zm3.182,0H84.879v-5.406h2.627Zm3.178,0H88.057v-5.406h2.627Zm3.178,0H91.235v-5.406h2.627Zm3.178,0H94.414v-5.406h2.627Z" transform="translate(-59.007 -243.806)" fill="#6c63ff" opacity="0.1"/>
    <path id="Path_672" data-name="Path 672" d="M65.24,404.34v6.173H97.2V404.34Zm3.185,5.782H65.818v-5.391h2.627Zm3.182,0H68.98v-5.391h2.627Zm3.175,0H72.155v-5.391h2.627Zm3.182,0H75.34v-5.391h2.627Zm3.178,0H78.515v-5.391h2.627Zm3.182,0H81.7v-5.391h2.627Zm3.182,0H84.879v-5.391h2.627Zm3.178,0H88.057v-5.391h2.627Zm3.178,0H91.235v-5.391h2.627Zm3.178,0H94.414v-5.391h2.627Z" transform="translate(-59.007 -273.186)" fill="#6c63ff" opacity="0.1"/>
    <path id="Path_673" data-name="Path 673" d="M65.24,451.7v6.184H97.2V451.7Zm3.185,5.782H65.818v-5.395h2.627Zm3.182,0H68.98v-5.395h2.627Zm3.175,0H72.155v-5.395h2.627Zm3.182,0H75.34v-5.395h2.627Zm3.178,0H78.515v-5.395h2.627Zm3.182,0H81.7v-5.395h2.627Zm3.182,0H84.879v-5.395h2.627Zm3.178,0H88.057v-5.395h2.627Zm3.178,0H91.235v-5.395h2.627Zm3.178,0H94.414v-5.395h2.627Z" transform="translate(-59.007 -302.578)" fill="#6c63ff" opacity="0.1"/>
    <path id="Path_674" data-name="Path 674" d="M65.24,499.06v6.165H97.2V499.06Zm3.185,5.782H65.818v-5.4h2.627Zm3.182,0H68.98v-5.4h2.627Zm3.175,0H72.155v-5.4h2.627Zm3.182,0H75.34v-5.4h2.627Zm3.178,0H78.515v-5.4h2.627Zm3.182,0H81.7v-5.4h2.627Zm3.182,0H84.879v-5.4h2.627Zm3.178,0H88.057v-5.4h2.627Zm3.178,0H91.235v-5.4h2.627Zm3.178,0H94.414v-5.4h2.627Z" transform="translate(-59.007 -331.97)" fill="#6c63ff" opacity="0.1"/>
    <path id="Path_675" data-name="Path 675" d="M65.66,546.41c.128.58.273,1.161.424,1.734V546.8H68.71v5.395H67.305c.043.125.085.262.128.379H97.48V546.41Zm6.239,5.782H69.272V546.8H71.9Zm3.175,0H72.447V546.8h2.627Zm3.182,0H75.622V546.8h2.627Zm3.178,0H78.807V546.8h2.627Zm3.182,0H81.989V546.8h2.627Zm3.182,0H85.171V546.8H87.8Zm3.178,0H88.349V546.8h2.627Zm3.178,0H91.527V546.8h2.627Zm3.178,0H94.706V546.8h2.627Z" transform="translate(-59.289 -361.356)" fill="#6c63ff" opacity="0.1"/>
    <path id="Path_676" data-name="Path 676" d="M88.26,593.77c.082.121.161.258.246.379h1.737v2.591c.187.258.371.516.561.759v-3.365h2.627v5.414H92.368c.105.125.207.258.328.379H112.67V593.77Zm8.343,5.778H93.977v-5.391H96.6Zm3.182,0H97.158v-5.391h2.627Zm3.182,0H100.34v-5.391h2.627Zm3.178,0h-2.627v-5.391h2.627Zm3.178,0H106.7v-5.391h2.627Zm3.178,0h-2.627v-5.391H112.5Z" transform="translate(-74.469 -390.749)" fill="#6c63ff" opacity="0.1"/>
    <path id="Path_677" data-name="Path 677" d="M141.65,641.12c.3.2.6.379.913.577v-.19h2.627v1.707l.558.3v-2.007h2.627v3.282a.75.75,0,0,0,.158.068V641.12Z" transform="translate(-110.328 -420.135)" fill="#6c63ff" opacity="0.1"/>
    <path id="Path_678" data-name="Path 678" d="M396.043,299.6ZM375.817,411.573Zm-21.1-56.973c.062.243.115.486.174.725h0C354.835,355.086,354.779,354.843,354.714,354.6Zm41.329-55.011ZM197.72,242.78v1.62h14.667v-1.62Zm178.1,168.793Zm-21.1-56.973c.062.243.115.486.174.725h0C354.835,355.086,354.779,354.843,354.714,354.6Zm41.329-55.011ZM375.817,411.562Zm-21.1-56.961c.062.243.115.486.174.725h0C354.835,355.086,354.779,354.843,354.714,354.6Z" transform="translate(-147.988 -172.92)" fill="#6c63ff" opacity="0.1"/>
    <path id="Path_679" data-name="Path 679" d="M365.631,301.678s-1.294-.209-1.294-2.386a38.935,38.935,0,0,0-.926-6.245h0c0-.019-.8-7.083-1.908-8.206s-2.528-7.717-2.528-7.717-.243-3.578-.739-4.348a39.761,39.761,0,0,1-2.154-5.346c-.988-2.69-5.109-4.553-5.109-4.553s-7.45-4.993-9.562-6.62h0a3.33,3.33,0,0,1-.535-.467c-.368-.558-1.97-.569-1.97-.569-.167-1.222-.328-2.625-.381-3.9a3.426,3.426,0,0,0-.016-.41,12.929,12.929,0,0,0,4.994-7.14c.039-.144.072-.3.108-.44a1.139,1.139,0,0,0,.64-.668,15.5,15.5,0,0,1,.43-1.518c.276-.539.8-.827,1.215-1.233a5.836,5.836,0,0,0,1.264-4.321c-.033-1.271-.21-2.553-.141-3.817l.02-.319c.02-.19.043-.379.072-.561.161-.941.512-1.829.709-2.762a4.048,4.048,0,0,0-.243-2.788c-.673-1.18-2.075-1.415-3.306-1.537-1.4-.137-2.643.042-3.536-1.3a14.321,14.321,0,0,0-1.405-1.961c-.184-.2-1.97-1.457-1.97-1.54a7,7,0,0,0-5.566-.493c-.926.311-1.8.82-2.738,1.074-2.026.554-4.357-.046-6.078,1.294a8.234,8.234,0,0,0-2.072,3.141q-.657,1.453-1.333,2.9a20.525,20.525,0,0,0-1.77,4.966,9.061,9.061,0,0,0-.118,1.161h0v.618a2.355,2.355,0,0,0,.02.379c.02.118.016.156.026.235s.026.258.046.379.059.334.1.5c.016.072.039.14.059.209.033.129.072.254.115.379.023.064.046.133.072.2a3.785,3.785,0,0,0,.167.379c.026.053.046.1.072.152a5.126,5.126,0,0,0,.3.508c.7,1.013,1.737,1.658,2.5,2.606v.425a13.555,13.555,0,0,0,5.116,10.6c0,.144.016.292.023.436a25.071,25.071,0,0,1-.036,3.38,1.306,1.306,0,0,0-1.09-.561,1.367,1.367,0,0,0-.42.042l-.03-.027h0v.034c-.722.2-1.612,1.074-2.463,3.543,0,0-2.587,3.369-4.557,3.229s-6.958,3.505-6.958,3.505-4.866,3.65-5.91,7.368a57.008,57.008,0,0,1-2.095,6.176l-6.015,14.322h0l-1.11,11.363s.614,5.053.493,5.824,2.525,7.717,2.525,7.717,8.744,17.752,12.316,18.662l.256-.209a1.928,1.928,0,0,0,.483.209l.736-.6a10.687,10.687,0,0,1-.056,2c-.493,1.753.184,13.191,1.044,15.434s.555,31.641.555,31.641l-.121,2.595a1.262,1.262,0,0,0,.03.228l-.03.615.089.053a8.422,8.422,0,0,1-.089,2.47,31.582,31.582,0,0,0-.433,4.355s-2.459,18.165-1.294,21.815,2.157,7.648,2.157,7.648,1.231,4.553.059,5.33-4.5,2.083-3.819,3.98c.624,1.753,2.991,6.45,3.343,7.136l-.03.36-.483,6.044a8.519,8.519,0,0,0,.555,2.307,3.463,3.463,0,0,0,3.51,2.534c.328-.027.709-.072,1.077-.129a41.69,41.69,0,0,0,7.979-2.4,3.408,3.408,0,0,1-.624-.6h0a2.255,2.255,0,0,1-.548-1.518c.052-1.1-1.73-6.343-2.174-7.633-.069-.186-.105-.292-.105-.292s4.065-4.909,3.389-9.261c0,0-4.5-3.035-3.018-4.7a53.38,53.38,0,0,0,4.127-6.45s.121-17.888,0-20.559a25.508,25.508,0,0,1,.227-5.55c.049-.277.108-.546.171-.812a37.219,37.219,0,0,0,6.186.542c.755,0,1.524,0,2.3-.053q0,.38.03.819c.171,4.431.489,12.2.749,15.088.368,4.139,2.4,15.293,2.4,15.293s-3.878,2.876.676,9.963a11.028,11.028,0,0,1-.3,2.94h0a36.389,36.389,0,0,0-.778,3.7,7.509,7.509,0,0,0,.039,3.388c.739,1.677,5.171,1.54,5.171,1.54h0l.108-.023a5.788,5.788,0,0,1,4.692,1.635c1.684,1.563,8.077.876,11.538.379,1.356-.2,2.262-.379,2.262-.379a1.744,1.744,0,0,0,.046-.546h0c-.036-.983-.7-3.138-5.221-5.061,0,0-4.249-3.3-4.19-6.176h-.581a4,4,0,0,1,.588,0s-1.665-7.019-.985-7.588-1.356-8.347-1.356-8.347-1.166-13.051-1.228-13.965a9.116,9.116,0,0,1,.305-2.314l-.305-7.155s-.059-2.379,0-3.153a18.143,18.143,0,0,0-.141-2.007c-.029-.266-.059-.542-.092-.816a27.677,27.677,0,0,0,2.627-.9L352.27,363.6c1.353-3.035,1.6-9.693,1.6-14.417,0-3.035-.118-5.281-.118-5.281l1.849-3.487s.427-4.173-.25-5.088a.975.975,0,0,1,.082-1.2,3.443,3.443,0,0,1,.4-.319s-.02-.034-.043-.083a3.319,3.319,0,0,1,.41-.338s-.657-1.176-.069-1.673c.552.432,1.044.759,1.418,1.024-.026.277-.053.436-.053.436l.158-.379.581.379s2.9-6.666,2.834-7.648,1.97-5.122,1.97-5.122a5.5,5.5,0,0,1,1.356-3.084c1.11-.911.86-7.508.86-7.508a18.29,18.29,0,0,1,1.047-4.841C367.043,303.571,365.631,301.678,365.631,301.678Zm-55.412-2.925.056,1.59-.565-1.051Z" transform="translate(-213.742 -157.64)" fill="url(#linear-gradient)"/>
    <path id="Path_680" data-name="Path 680" d="M471.165,497.4l-.709,3.49s-5.68-3.35-6.7-7.607,1.714-5.873,1.714-5.873L470.758,490Z" transform="translate(-326.513 -324.74)" fill="#fff"/>
    <path id="Path_681" data-name="Path 681" d="M471.165,497.4l-.709,3.49s-5.68-3.35-6.7-7.607,1.714-5.873,1.714-5.873L470.758,490Z" transform="translate(-326.513 -324.74)" opacity="0.1"/>
    <path id="Path_682" data-name="Path 682" d="M363.422,804.241s-5.254,2.231-8.865,2.512c-1.918.148-2.926-1.21-3.444-2.519a8.574,8.574,0,0,1-.542-2.3l.47-6.013.25-3.2,7.674-2.3,1.087,3.839.1.292c.437,1.282,2.187,6.5,2.134,7.588a2.244,2.244,0,0,0,.538,1.5,3.309,3.309,0,0,0,.6.6Z" transform="translate(-250.649 -512.792)" fill="#fff"/>
    <path id="Path_683" data-name="Path 683" d="M450.759,800.531a1.745,1.745,0,0,1-.046.543s-11.236,2.166-13.535,0a5.54,5.54,0,0,0-4.728-1.6s-4.347.137-5.073-1.518a7.574,7.574,0,0,1-.036-3.369,36.315,36.315,0,0,1,.762-3.684l.174-.159,1.034-.96,12.109-.414h.092c-.059,2.861,4.111,6.142,4.111,6.142C450.053,797.409,450.706,799.553,450.759,800.531Z" transform="translate(-302.101 -512.14)" fill="#fff"/>
    <path id="Path_684" data-name="Path 684" d="M450.762,809.065a1.778,1.778,0,0,1-.049.542s-11.233,2.166-13.531,0a5.541,5.541,0,0,0-4.725-1.6s-4.351.137-5.073-1.517a7.57,7.57,0,0,1-.039-3.369c1.675.193,4.318.675,5.355,1.825,1.57,1.749,4.229,3.494,5.861,3.631C439.838,808.67,447.479,808.951,450.762,809.065Z" transform="translate(-302.105 -520.674)" opacity="0.1"/>
    <path id="Path_685" data-name="Path 685" d="M364.537,825.894s-5.254,2.231-8.865,2.512a3.4,3.4,0,0,1-3.441-2.523c1.336.52,3.192,1.066,4.167.565,1.156-.592,5.254-.975,7.552-1.138A3.421,3.421,0,0,0,364.537,825.894Z" transform="translate(-251.764 -534.445)" opacity="0.1"/>
    <path id="Path_686" data-name="Path 686" d="M395.582,315.763c-4.334-1.946-9.91-8.377-8.517-11.382a7.567,7.567,0,0,0,.542-2.413,25.453,25.453,0,0,0,.039-3.415,53.738,53.738,0,0,0-.581-5.554s13.531.353,12.743,2.656a9.9,9.9,0,0,0-.2,3.16c.062,1.313.227,2.8.4,4.052.236,1.722.473,3.035.473,3.035s-.827,1.339-1.313,1.411S401.8,318.537,395.582,315.763Z" transform="translate(-275.015 -204.087)" fill="#cf6f80"/>
    <path id="Path_687" data-name="Path 687" d="M361.082,794.551l-.1.129c-4.045-5.653-8.938,1.392-8.938,1.392l-.072-.148.25-3.2,7.674-2.3,1.087,3.839Z" transform="translate(-251.59 -512.792)" opacity="0.1"/>
    <path id="Path_688" data-name="Path 688" d="M443.426,789.743s-2.955-.072-4.531,1.537-9.194.349-8.865,0a1.382,1.382,0,0,0,.171-.577l1.034-.96,12.11-.414C443.389,789.584,443.426,789.743,443.426,789.743Z" transform="translate(-304.011 -512.115)" opacity="0.1"/>
    <path id="Path_689" data-name="Path 689" d="M359.279,661.153a11.818,11.818,0,0,0-.5,1.946,25.683,25.683,0,0,0-.227,5.524c.121,2.656,0,20.453,0,20.453a54.99,54.99,0,0,1-4.045,6.419c-1.448,1.673,2.955,4.678,2.955,4.678.657,4.325-3.323,9.212-3.323,9.212-4.045-5.653-8.938,1.4-8.938,1.4s-2.66-5.312-3.323-7.208,2.6-3.21,3.743-3.98-.056-5.312-.056-5.312-.969-3.98-2.118-7.61,1.267-21.7,1.267-21.7a32.213,32.213,0,0,1,.424-4.329,8.341,8.341,0,0,0,.089-2.458c-.02-.277-.043-.508-.059-.664s-.03-.228-.03-.228l.046-.091,1.642-3.536S360.067,658.926,359.279,661.153Z" transform="translate(-244.753 -427.917)" fill="#002ddc"/>
    <path id="Path_690" data-name="Path 690" d="M436.166,711.2s-2.955-.072-4.531,1.518-9.194.349-8.865,0,.3-2.933.3-2.933c-4.469-7.049-.657-9.91-.657-9.91s-2-11.1-2.358-15.214c-.253-2.876-.565-10.6-.732-15.016-.072-1.9-.115-3.2-.115-3.2l3.651-.85.47-.11,8.806-2.041s.243,1.9.407,3.449a18.589,18.589,0,0,1,.138,2c-.059.759,0,3.134,0,3.134l.3,7.121a9.255,9.255,0,0,0-.3,2.3c.059.907,1.205,13.889,1.205,13.889s1.993,7.747,1.313,8.3S436.166,711.2,436.166,711.2Z" transform="translate(-296.751 -433.987)" fill="#002ddc"/>
    <path id="Path_691" data-name="Path 691" d="M400.253,295.656a9.9,9.9,0,0,0-.2,3.16,9.984,9.984,0,0,1-11.958-.258A53.709,53.709,0,0,0,387.51,293S401.041,293.345,400.253,295.656Z" transform="translate(-275.46 -204.087)" opacity="0.1"/>
    <path id="Path_692" data-name="Path 692" d="M396.3,256.663a14.688,14.688,0,0,1-.552,4.025c-1.7,6.011-6.9,9.733-12.312,8.816s-9.469-6.209-9.6-12.53v-.311c0-7.17,5.029-12.983,11.234-12.983s11.236,5.813,11.236,12.983Z" transform="translate(-266.272 -173.478)" fill="#cf6f80"/>
    <path id="Path_693" data-name="Path 693" d="M395.582,330.435c-4.334-1.946-9.91-8.377-8.517-11.382a7.568,7.568,0,0,0,.542-2.413l5.933,5.634,3.671,3.479,2.791-8.21c.236,1.722.473,3.035.473,3.035s-.827,1.339-1.313,1.411S401.8,333.208,395.582,330.435Z" transform="translate(-275.015 -218.758)" opacity="0.1"/>
    <path id="Path_694" data-name="Path 694" d="M355.359,295.717,350.4,391.892l-6.462.489L327.21,336.615l2.745-66.207.578-13.988,7.44,7.06,3.674,3.479,2.873-8.449,5.342,5.38Z" transform="translate(-219.448 -159.141)" fill="#002ddc"/>
    <path id="Path_695" data-name="Path 695" d="M366.135,661.2a11.821,11.821,0,0,0-.5,1.946,43.123,43.123,0,0,1-13.548-4.89l-.089-.053.03-.611.016-.319,1.642-3.536S366.923,658.976,366.135,661.2Z" transform="translate(-251.61 -427.967)" opacity="0.1"/>
    <path id="Path_696" data-name="Path 696" d="M422.9,672.734a28.956,28.956,0,0,1-3.632.478c-.072-1.9-.115-3.2-.115-3.2l3.651-.85Z" transform="translate(-296.711 -437.536)" opacity="0.1"/>
    <path id="Path_697" data-name="Path 697" d="M440.913,666.939a22.224,22.224,0,0,1-9.168,1l-.046-2.405,8.806-2.041S440.749,665.368,440.913,666.939Z" transform="translate(-305.14 -434.018)" opacity="0.1"/>
    <path id="Path_698" data-name="Path 698" d="M344.574,452.1c-13.462,2.656-25.792-4.959-25.792-4.959l.118-2.58s.305-29.247-.542-31.489-1.507-13.612-1.028-15.358-1.75-27.915-1.75-27.915l-.361-10.623L302,352.99l5.91-14.235a56.446,56.446,0,0,0,2.055-6.146c1.028-3.7,5.8-7.326,5.8-7.326s4.892-3.627,6.826-3.49,4.469-3.21,4.469-3.21c1.872-5.513,3.566-3.016,3.566-3.016a5.657,5.657,0,0,1-.092.816c-.657,6.051,10.619,25.172,10.78,25.51h0l1.074,30.222,1.087,38.246Z" transform="translate(-218.027 -217.743)" opacity="0.1"/>
    <path id="Path_699" data-name="Path 699" d="M343.454,452.064c-13.462,2.656-25.8-4.959-25.8-4.959l.121-2.58s.305-29.247-.545-31.489-1.507-13.612-1.025-15.358-1.75-27.915-1.75-27.915l-.364-10.623L300.87,352.93l5.91-14.235a57.341,57.341,0,0,0,2.055-6.146c1.024-3.7,5.8-7.326,5.8-7.326s4.892-3.627,6.823-3.49,4.469-3.21,4.469-3.21c1.875-5.512,3.94-3.016,3.94-3.016,0,.262-.2.379-.092.816,1.445,5.869,10.258,25.172,10.419,25.51h0l1.087,30.222,1.087,38.246Z" transform="translate(-217.268 -217.705)" fill="#fff"/>
    <path id="Path_700" data-name="Path 700" d="M394.142,344.132c-1.448-.7-9.118-10.816-9.118-10.816v-2.3c-.279-.759-1.937-.3-3.283.235l.578-13.988.657.63C384.413,323.755,393.974,343.794,394.142,344.132Z" transform="translate(-271.585 -219.143)" opacity="0.1"/>
    <path id="Path_701" data-name="Path 701" d="M395.245,341.922c-1.451-.7-9.122-10.816-9.122-10.816v-2.3c-.279-.759-1.937-.3-3.284.235l.581-13.988.657.63C385.519,321.545,395.084,341.588,395.245,341.922Z" transform="translate(-272.324 -217.771)" fill="#fff"/>
    <path id="Path_702" data-name="Path 702" d="M351.6,517.065c.181,0,9.361-1.115,9.361-1.115s5.559,12.63,5.194,15.7-1.024,5.793-3.261,5.311-12.034.379-12.034.379Z" transform="translate(-250.844 -342.452)" opacity="0.1"/>
    <path id="Path_703" data-name="Path 703" d="M350.489,514.855c.181,0,9.361-1.115,9.361-1.115s5.556,12.634,5.194,15.7-1.028,5.793-3.26,5.311-12.034.379-12.034.379Z" transform="translate(-250.099 -341.081)" fill="#fff"/>
    <path id="Path_704" data-name="Path 704" d="M362.8,501.05s8.425,5.232,8.606,6.829-4.288-.7-5.254-.975a10.546,10.546,0,0,0-1.934-.349l-6.439.2Z" transform="translate(-255.492 -333.205)" fill="#cf6f80"/>
    <ellipse id="Ellipse_1471" data-name="Ellipse 1471" cx="0.887" cy="1.024" rx="0.887" ry="1.024" transform="translate(119.32 123.593)" opacity="0.1"/>
    <ellipse id="Ellipse_1472" data-name="Ellipse 1472" cx="0.887" cy="1.024" rx="0.887" ry="1.024" transform="translate(119.32 123.176)" fill="#3f3d56"/>
    <ellipse id="Ellipse_1473" data-name="Ellipse 1473" cx="0.887" cy="1.024" rx="0.887" ry="1.024" transform="translate(120.951 167.936)" opacity="0.1"/>
    <ellipse id="Ellipse_1474" data-name="Ellipse 1474" cx="0.887" cy="1.024" rx="0.887" ry="1.024" transform="translate(120.951 167.515)" fill="#3f3d56"/>
    <ellipse id="Ellipse_1475" data-name="Ellipse 1475" cx="0.887" cy="1.024" rx="0.887" ry="1.024" transform="translate(120.203 145.764)" opacity="0.1"/>
    <ellipse id="Ellipse_1476" data-name="Ellipse 1476" cx="0.887" cy="1.024" rx="0.887" ry="1.024" transform="translate(120.203 145.347)" fill="#3f3d56"/>
    <path id="Path_705" data-name="Path 705" d="M443.442,393.272s.6,1.047,0,1.537.059,1.673.059,1.673-1.507,1.02-.844,1.939.243,5.065.243,5.065l-1.812,3.468s.108,2.235.115,5.254c0,4.712-.24,11.336-1.566,14.356l.184,24.778s-6.347,2.678-11.66,1.863l-.788-39.76s1.149-22.547,1.573-26.872a51.96,51.96,0,0,0,.3-6.772,87.153,87.153,0,0,0-.788-9.91s-.657-13.609-.722-17.376c-.03-1.8.053-7.06.144-12.061.1-5.467.217-10.623.217-10.623l-1.2-10.957s1.2-.14,1.56.417a3.565,3.565,0,0,0,.525.467h0c2.069,1.616,9.378,6.586,9.378,6.586s4.045,1.859,5.014,4.522a42.49,42.49,0,0,0,2.111,5.311c.47.759.726,4.325.726,4.325s1.392,6.563,2.479,7.675,1.881,8.183,1.881,8.183l-9.6,8.726s-.844,14.515-1.024,15.077S443.442,393.272,443.442,393.272Z" transform="translate(-301.917 -220.135)" fill="#fff"/>
    <path id="Path_706" data-name="Path 706" d="M443.76,393.074s.6,1.047,0,1.536.056,1.673.056,1.673-1.5,1.032-.841,1.95.243,5.065.243,5.065l-1.813,3.468s.108,2.235.118,5.255c0,4.712-.24,11.336-1.566,14.356l.181,24.778s-6.357,2.678-11.663,1.863l-.785-39.76s1.149-22.547,1.573-26.872a51.476,51.476,0,0,0,.3-6.772,87.692,87.692,0,0,0-.785-9.91s-.657-13.609-.726-17.376c-.03-1.8.056-7.06.144-12.061.1-5.467.217-10.623.217-10.623l-1.583-11.1s1.583,0,1.947.565a3.216,3.216,0,0,0,.525.467h0c2.069,1.616,9.381,6.586,9.381,6.586s4.042,1.859,5.011,4.522a41.814,41.814,0,0,0,2.115,5.311c.473.759.722,4.325.722,4.325s1.392,6.563,2.479,7.675,1.872,8.168,1.872,8.168l-9.6,8.726s-.844,14.515-1.028,15.077S443.76,393.074,443.76,393.074Z" transform="translate(-301.869 -219.937)" fill="#fff"/>
    <path id="Path_707" data-name="Path 707" d="M433,334.225l.867,2.921-4.564,5.311c.1-5.463.217-10.623.217-10.623l-1.583-11.1s1.583,0,1.947.565a3.081,3.081,0,0,0,.525.463h0l3.881,12.937Z" transform="translate(-302.615 -221.297)" opacity="0.1"/>
    <path id="Path_708" data-name="Path 708" d="M431.893,332.015l.87,2.921-4.564,5.311c.1-5.467.217-10.623.217-10.623l-1.586-11.1s1.586,0,1.947.565a3.39,3.39,0,0,0,.525.467h0l3.884,12.933Z" transform="translate(-301.869 -219.925)" fill="#fff"/>
    <path id="Path_709" data-name="Path 709" d="M396.3,256.663a14.689,14.689,0,0,1-.552,4.025.423.423,0,0,1-.355-.1,18.225,18.225,0,0,0-3.329-9.348,9.352,9.352,0,0,0-1.806-2.163,3.2,3.2,0,0,0-2.45-.8c-.985.156-1.855.929-2.85,1.028-1.313.125-2.489-.926-3.792-.979a3.545,3.545,0,0,0-2.788,1.495,9.338,9.338,0,0,0-1.494,3.2,21.377,21.377,0,0,0-.834,5.524c-.016,1.062-.105,2.394-.959,2.781A6.25,6.25,0,0,0,373.85,257l-.02-.023v-.311c0-7.17,5.029-12.983,11.234-12.983s11.236,5.813,11.236,12.983Z" transform="translate(-266.272 -173.478)" opacity="0.1"/>
    <path id="Path_710" data-name="Path 710" d="M382.7,222.179a6.787,6.787,0,0,0-5.457-.493c-.91.311-1.767.816-2.689,1.07-1.97.55-4.269-.046-5.96,1.286a8.239,8.239,0,0,0-2.029,3.122l-1.313,2.891a20.507,20.507,0,0,0-1.737,4.932,7.1,7.1,0,0,0,.837,5.091c.7,1.021,1.724,1.662,2.479,2.622a6.276,6.276,0,0,1,1.235,4.325c.857-.379.939-1.715.959-2.777a21.377,21.377,0,0,1,.834-5.524,9.306,9.306,0,0,1,1.494-3.2,3.551,3.551,0,0,1,2.788-1.495c1.313.053,2.492,1.1,3.792.975.985-.095,1.858-.873,2.85-1.024a3.189,3.189,0,0,1,2.45.8,9.256,9.256,0,0,1,1.8,2.163,18.174,18.174,0,0,1,3.333,9.348c.371.315.906-.095,1.09-.58a15.459,15.459,0,0,1,.424-1.518c.269-.535.785-.819,1.189-1.222a5.907,5.907,0,0,0,1.241-4.3,24.727,24.727,0,0,1-.046-4.674c.154-.941.5-1.821.693-2.751a4.1,4.1,0,0,0-.236-2.773c-.657-1.176-2.039-1.408-3.244-1.518-1.369-.137-2.594.038-3.467-1.294a14.313,14.313,0,0,0-1.379-1.95C384.452,223.515,382.7,222.263,382.7,222.179Z" transform="translate(-259.252 -159.607)" fill="#512e4e"/>
    <path id="Path_711" data-name="Path 711" d="M304.278,422.46l-3.431-7.33-1.087,11.31s.6,5.023.483,5.793,2.476,7.675,2.476,7.675,8.58,17.657,12.083,18.567l11.837-9.773L323.5,444.1s-1.087-.489-1.359,0c0,0-5.828-11.586-6.432-12.425a4.742,4.742,0,0,1-.486-2.512,2.782,2.782,0,0,1-.6-2.163c.3-1.047-1.75-4.678-1.75-4.678l1.872-2.022Z" transform="translate(-216.523 -279.882)" opacity="0.1"/>
    <path id="Path_712" data-name="Path 712" d="M299.543,412.93l-.906.835-1.087,11.31s.6,5.023.483,5.793,2.479,7.675,2.479,7.675,8.576,17.657,12.08,18.567l11.84-9.773-3.142-4.606s-1.087-.489-1.359,0c0,0-5.828-11.586-6.432-12.425a4.727,4.727,0,0,1-.483-2.511,2.782,2.782,0,0,1-.6-2.162c.3-1.047-1.753-4.678-1.753-4.678l1.872-2.022Z" transform="translate(-215.038 -278.517)" fill="#fff"/>
    <path id="Path_713" data-name="Path 713" d="M460.878,518.657c.657.922.243,5.061.243,5.061l-1.812,3.468s.108,2.238.115,5.255l-3.047,1.1a1.616,1.616,0,0,1-1.634-.331,2.226,2.226,0,0,1-.714-1.73l.525-19.58,7.109,3.141c-.6.486.059,1.677.059,1.677S460.214,517.735,460.878,518.657Z" transform="translate(-320.137 -339.939)" opacity="0.1"/>
    <path id="Path_714" data-name="Path 714" d="M461.981,517.553c.657.922.243,5.065.243,5.065l-1.812,3.468s.108,2.235.118,5.254l-3.1,1.119a1.584,1.584,0,0,1-1.6-.325,2.181,2.181,0,0,1-.7-1.693l.529-19.641,7.112,3.141c-.607.486.056,1.673.056,1.673S461.324,516.635,461.981,517.553Z" transform="translate(-320.875 -339.256)" fill="#fff"/>
    <path id="Path_715" data-name="Path 715" d="M471.537,499s-.483,3.562-1.691,3.771-1.75,5.763-2.955,5.566-.407-5.164-.364-6.127-1.313-4.955-.3-5.862,4.226,0,4.226,0Z" transform="translate(-328.077 -330.039)" fill="#cf6f80"/>
    <path id="Path_716" data-name="Path 716" d="M471.572,423l2.279-5.311a39.369,39.369,0,0,1,.906,6.211c0,2.162,1.267,2.375,1.267,2.375s1.389,1.9.657,3.278a18,18,0,0,0-1.028,4.818s.24,6.56-.847,7.466a5.467,5.467,0,0,0-1.313,3.073s-2,4.116-1.934,5.1-2.778,7.607-2.778,7.607a11.15,11.15,0,0,0-6.7-11.8s-.062-2.8.542-3.562,1.547-1.115.955-4.989a52.239,52.239,0,0,1-.171-9.432,66.318,66.318,0,0,1,1.813-6.727Z" transform="translate(-325.541 -281.471)" opacity="0.1"/>
    <path id="Path_717" data-name="Path 717" d="M473.961,415.69l1.99.759a39.237,39.237,0,0,1,.91,6.211c0,2.162,1.267,2.375,1.267,2.375s1.389,1.9.657,3.278a17.957,17.957,0,0,0-1.024,4.818s.24,6.56-.847,7.466a5.534,5.534,0,0,0-1.33,3.073s-1.993,4.116-1.931,5.1-2.781,7.607-2.781,7.607a11.145,11.145,0,0,0-6.7-11.8s-.059-2.8.545-3.562,1.547-1.115.956-4.989a52.235,52.235,0,0,1-.171-9.432,66.318,66.318,0,0,1,1.812-6.727Z" transform="translate(-326.946 -280.23)" fill="#fff"/>
    <path id="Path_718" data-name="Path 718" d="M360.15,776.533s3.172-2.3,5.254-.63S360.15,776.533,360.15,776.533Z" transform="translate(-257.084 -503.404)" opacity="0.1"/>
    <path id="Path_719" data-name="Path 719" d="M435.21,759.757a5.942,5.942,0,0,1,5.165,2.515C442.732,765.2,435.21,759.757,435.21,759.757Z" transform="translate(-307.498 -493.749)" opacity="0.1"/>
    <g id="Group_9624" data-name="Group 9624" transform="translate(104.128 70.058)" opacity="0.1">
      <path id="Path_720" data-name="Path 720" d="M400.678,261.448c-.4.4-.923.691-1.192,1.225a15.479,15.479,0,0,0-.42,1.518c-.184.493-.719.9-1.09.584a18.253,18.253,0,0,0-3.333-9.352,9.257,9.257,0,0,0-1.8-2.163,3.2,3.2,0,0,0-2.453-.8c-.985.156-1.852.93-2.847,1.024-1.313.129-2.492-.922-3.8-.975a3.537,3.537,0,0,0-2.784,1.5,9.286,9.286,0,0,0-1.494,3.2,21.4,21.4,0,0,0-.834,5.524c-.02,1.059-.105,2.379-.952,2.773a6,6,0,0,1,0,.842c.854-.379.939-1.715.959-2.777a21.374,21.374,0,0,1,.834-5.524,9.307,9.307,0,0,1,1.494-3.2,3.545,3.545,0,0,1,2.784-1.495c1.313.053,2.5,1.1,3.8.975.985-.095,1.858-.873,2.847-1.024a3.2,3.2,0,0,1,2.453.8,9.257,9.257,0,0,1,1.8,2.163,18.2,18.2,0,0,1,3.333,9.348c.371.315.906-.095,1.09-.58s.19-1.055.42-1.518c.269-.535.788-.82,1.192-1.222a5.908,5.908,0,0,0,1.241-4.3v-.144A5.411,5.411,0,0,1,400.678,261.448Z" transform="translate(-372.986 -248.974)"/>
      <path id="Path_721" data-name="Path 721" d="M366.837,266.1c-.755-.96-1.786-1.6-2.479-2.618a6.119,6.119,0,0,1-.956-3.107,6.519,6.519,0,0,0,.956,3.942c.693,1.021,1.724,1.662,2.479,2.622a6.171,6.171,0,0,1,1.238,3.384,6.267,6.267,0,0,0-1.238-4.223Z" transform="translate(-363.385 -253.9)"/>
      <path id="Path_722" data-name="Path 722" d="M451.821,244.051c-.194.93-.538,1.813-.7,2.751a10.1,10.1,0,0,0-.1,1.9,8.48,8.48,0,0,1,.1-1.077c.158-.941.5-1.821.7-2.751a5.369,5.369,0,0,0,.108-1.571A6.022,6.022,0,0,1,451.821,244.051Z" transform="translate(-422.241 -243.3)"/>
    </g>
    <ellipse id="Ellipse_1477" data-name="Ellipse 1477" cx="31.994" cy="5.937" rx="31.994" ry="5.937" transform="translate(11.91 276.68)" fill="#6c63ff" opacity="0.1"/>
    <rect id="Rectangle_5406" data-name="Rectangle 5406" width="2.059" height="53.558" transform="translate(42.876 168.877)" fill="#535461"/>
    <path id="Path_723" data-name="Path 723" d="M165.376,638.565l-.128,2.413-.184,3.414-.076,1.419-.181,3.415-.079,1.419-.184,3.414-2.075,38.724c-.187,3.458-2.669,6.152-5.667,6.154h-10.79c-3,0-5.479-2.7-5.664-6.154l-2.065-38.75-.184-3.414-.076-1.419-.184-3.415-.076-1.419-.184-3.414-.131-2.413a3.739,3.739,0,0,1,.8-2.54,2.782,2.782,0,0,1,2.151-1.068h22.068a2.774,2.774,0,0,1,2.132,1.091A3.726,3.726,0,0,1,165.376,638.565Z" transform="translate(-107.504 -416.293)" fill="#3f3d56"/>
    <path id="Path_724" data-name="Path 724" d="M118.26,592.24l-.184,3.4H90.764l-.184-3.4Z" transform="translate(-60.516 -367.556)" fill="#9d9cb5"/>
    <path id="Path_725" data-name="Path 725" d="M118.531,604.95l-.181,3.407h-26.8l-.184-3.407Z" transform="translate(-61.046 -375.443)" fill="#9d9cb5"/>
    <path id="Path_726" data-name="Path 726" d="M118.8,617.68l-.181,3.4H92.344l-.184-3.4Z" transform="translate(-61.577 -383.344)" fill="#9d9cb5"/>
    <path id="Path_727" data-name="Path 727" d="M74.182,539.352c11.988,10.023,16.992,25.7,16.992,25.7a48.519,48.519,0,0,1-26.439-10.6c-11.991-10.023-16.986-25.7-16.986-25.7A48.485,48.485,0,0,1,74.182,539.352Z" transform="translate(-47.26 -350.403)" fill="#002ddc"/>
    <path id="Path_728" data-name="Path 728" d="M47.72,528.76s15,9.617,19.809,17.581,23.625,18.711,23.625,18.711" transform="translate(-47.24 -350.403)" fill="none" stroke="#535461" stroke-miterlimit="10" stroke-width="2"/>
    <path id="Path_729" data-name="Path 729" d="M122.388,494.027c6.524,5.452,9.253,13.984,9.253,13.984a26.421,26.421,0,0,1-14.392-5.763C110.722,496.8,108,488.26,108,488.26A26.4,26.4,0,0,1,122.388,494.027Z" transform="translate(-87.727 -325.268)" fill="#002ddc"/>
    <path id="Path_730" data-name="Path 730" d="M108,488.26s8.163,5.236,10.78,9.568,12.861,10.183,12.861,10.183" transform="translate(-87.727 -325.268)" fill="none" stroke="#535461" stroke-miterlimit="10" stroke-width="2"/>
    <path id="Path_731" data-name="Path 731" d="M190.272,518.7c-7.5,9.519-9.082,21.959-9.082,21.959a39.072,39.072,0,0,0,18.059-12.52c7.49-9.523,9.082-21.959,9.082-21.959A39.141,39.141,0,0,0,190.272,518.7Z" transform="translate(-136.885 -336.389)" fill="#002ddc"/>
    <path id="Path_732" data-name="Path 732" d="M208.338,506.19s-9.765,9.758-12.247,16.481-14.9,17.994-14.9,17.994" transform="translate(-136.885 -336.395)" fill="none" stroke="#535461" stroke-miterlimit="10" stroke-width="2"/>
    <path id="Path_733" data-name="Path 733" d="M896.165,364.859s-5.421-31.163-3.346-35.04c0,0,.076-3.6-.049-8.2v-.527a9.863,9.863,0,0,0,1.139.759,8.122,8.122,0,0,0,6.206.926l-1.642-2.113a3.641,3.641,0,0,1-.89-1.719,4.072,4.072,0,0,1,.355-1.859c1.56-4.553,1.642-10.278-1.363-13.753-2.538-2.921-3.155-6.692-5.91-9.36-2.013-1.954-3.119-4.818-4.163-7.588a47.1,47.1,0,0,1-2.279-7.182c-.394-1.939-.552-3.946-1.094-5.839a7.337,7.337,0,0,0-3.142-4.579,11.12,11.12,0,0,1-1.707-.869,8.323,8.323,0,0,1-1.573-2.136c-2.486-3.794-10.809-1.559-14.749-.019a8.056,8.056,0,0,0-2.916,1.867l.036-.068c.03-.057.066-.114.1-.171a5.788,5.788,0,0,0-1.1,1.423c-.575,1.051-.814,2.276-1.294,3.414-.578,1.347-3.792,5.107-2.41,6.62a1.16,1.16,0,0,0,.328.243,2.488,2.488,0,0,0,1.642.19l-.059.163a12.6,12.6,0,0,0-.712,4.207c0,6.233,4.449,11.287,9.942,11.287a8.8,8.8,0,0,0,3.044-.543c.023.144.043.288.066.432a1.515,1.515,0,0,0,.023.171h0l-.174.281a.385.385,0,0,0-.03-.049l-5.155,8.324c-.788.641-5.326,4.435-5.582,7.28-.269,3.115-.538,6.761-.538,6.761l-.036.782a1.839,1.839,0,0,1-1.642.512c-1.609-.3-1.609,6.829-1.609,6.829s-1.07,1.138-1.806.152-2.679,2.356-2.679,2.356l-12.182.607h0l-.279.019-.657-2.348a.839.839,0,0,0-1.074-.634.931.931,0,0,0-.148.072l-.046.03-.085.068-.043.046a.74.74,0,0,0-.066.08l-.039.053-.02.023h0a1.08,1.08,0,0,0-.118.85l.565,2.015c-2.351.546-4.754,2.087-2.794,6.328l-9.936-2.121,3.215,3.118,16.595,3.957c-.22.455-.076,1.115.611,2.045,2.955,4.01,8.34,5.1,10.507,5.38a22.507,22.507,0,0,0,2.131,4.173l-.187,3.995s-5.487,30.45-6.491,31.994a18.054,18.054,0,0,0,1.389-2.113c-1.592,6.256-3.819,14.819-4.4,16.1-.939,2.049-1.809,10.338-.739,10.869a7.811,7.811,0,0,0,2.607-.034v.687l-.059,26.022s.269,15.961-.47,17.482a16.882,16.882,0,0,0-.936,4.712s-2.955,6.294-5.3,8.825a.374.374,0,0,1-.053.053l-.072-.592a10.58,10.58,0,0,1-9.039,3.874s-3.747,2.815,1.809,2.967,12.651-.228,12.651-.228,4.955-8.726,9.105-7.588v6.613h1.271v-6.719a6.143,6.143,0,0,0,2.262-3.957,5.218,5.218,0,0,0-1.484-4.45,3.056,3.056,0,0,1-.811-2.079l-.046.045c0-.133-.03-.269-.043-.41-.365-3.415-.821-10.46.791-15.672,2.21-7.148,2.88-17.1,1.271-23.029q-.779-2.841-1.277-5.77c-.039-.247-.076-.482-.108-.7a22.853,22.853,0,0,1,3.26.759c3.727,1.188,11.88,1.408,18.841,1.343.016.22.036.451.059.683a28.329,28.329,0,0,0,.775,4.75c.873,3.035,1.274,16.416,1.274,16.416s1.126,11,.512,15.479c-.328,2.489-.657,4.989-.844,7.5v.049s-1.845,6.07-3.195,9.367c-.033.083-.069.167-.1.247a3.786,3.786,0,0,0-1.054.269s-1.809,4.173-3.612,4.864-1.205,2.963,2.876,2.128,10.244-1.518,10.244-1.518l.266-4.257,1.254-1.813-.328,4.245,1.336-.3-.177-5.163,2.052-2.967s2.479-2.55-1.205-7.565v.11c-.039-.072-.076-.148-.118-.22v-.023c-.611-1.093-1.1-3.13-.207-6.746,1.609-6.533,2.545-12.463,2.545-12.463s3.592-15.885-.726-23.4h.19a14.073,14.073,0,0,1-.929-3.339q-.033-.2-.059-.421a21.073,21.073,0,0,0,8.888-2.322C898.979,408.556,897.439,370.86,896.165,364.859ZM855.6,338.567v.076l-.657.038Zm-2.252.36a.689.689,0,0,0-.3.163,3.7,3.7,0,0,0-.516,1.559l-1.024-.266s-.719-.178-1.753-.379l-.489-.569C850.619,339.307,852.018,339.117,853.351,338.927Z" transform="translate(-567.601 -185.898)" fill="url(#linear-gradient-2)"/>
    <path id="Path_734" data-name="Path 734" d="M971.711,742.289l-.391,5.376,1.31-.3-.2-5.831Z" transform="translate(-652.065 -460.207)" fill="#1d2366"/>
    <path id="Path_735" data-name="Path 735" d="M892.178,682.233c-1.579,5.2-1.133,12.212-.778,15.619.131,1.26.253,2.026.253,2.026s-2.361,6.214-2.558,6.45-6.948,5-6.948,5l-4.719,3.183s-4.787-2.424-2.492-3.259a3.51,3.51,0,0,0,1.238-.975c2.3-2.523,5.185-8.794,5.185-8.794a17.165,17.165,0,0,1,.919-4.7c.722-1.514.46-17.422.46-17.422l.056-25.931v-3.38l8.98.076a26.95,26.95,0,0,0,.387,3.414q.484,2.915,1.251,5.751C894.995,665.206,894.338,675.112,892.178,682.233Z" transform="translate(-602.422 -425.677)" fill="#ffb0b1"/>
    <path id="Path_736" data-name="Path 736" d="M891.652,778.088s-2.361,6.214-2.558,6.45-6.948,5-6.948,5l-4.719,3.183s-4.787-2.424-2.492-3.259a3.513,3.513,0,0,0,1.238-.975l.2,1.658,1.573-.076,13.462-14C891.531,777.322,891.652,778.088,891.652,778.088Z" transform="translate(-602.422 -503.886)" opacity="0.1"/>
    <path id="Path_737" data-name="Path 737" d="M874.427,777l-13.538,14.09-1.573.076-.328-2.656a10.316,10.316,0,0,1-8.865,3.862s-3.671,2.8,1.77,2.955,12.389-.228,12.389-.228,4.853-8.726,8.915-7.588v6.59h1.248v-6.651a6.131,6.131,0,0,0,2.213-3.946,5.253,5.253,0,0,0-1.448-4.431A3.08,3.08,0,0,1,874.427,777Z" transform="translate(-585.361 -504.463)" fill="#1d2366"/>
    <path id="Path_738" data-name="Path 738" d="M998.608,689.875c-.873,3.6-.4,5.634.2,6.723v.023a13.566,13.566,0,0,1,1.569,4.427l.053.342-6.16,10.376-3.343,1.518s-5.375-2.121-4.393-2.728a5.986,5.986,0,0,0,1.07-2.026c1.313-3.282,3.126-9.337,3.126-9.337v-.049c.19-2.5.493-4.993.828-7.474.6-4.465-.5-15.426-.5-15.426s-.394-13.328-1.248-16.359a28.517,28.517,0,0,1-.765-4.719c-.177-1.9-.217-3.46-.217-3.46s3.54-5.691,10.028.455a7.928,7.928,0,0,1,1.356,1.7c4.482,7.368.873,23.6.873,23.6S1000.181,683.361,998.608,689.875Z" transform="translate(-677.715 -425.214)" fill="#ffb0b1"/>
    <path id="Path_739" data-name="Path 739" d="M1000.461,778.6l-6.16,10.376-3.343,1.518s-5.375-2.121-4.393-2.728a5.989,5.989,0,0,0,1.07-2.026c2.276-.023,3.454,2.481,3.454,2.481l2.883-.531s3.8-8.635,4.656-9.162.131-3.942.131-3.942v-.869c.023.03.043.065.069.095v.023a13.56,13.56,0,0,1,1.569,4.427Z" transform="translate(-677.735 -502.428)" opacity="0.1"/>
    <path id="Path_740" data-name="Path 740" d="M982.222,788.808s-1.642-3.483-4.787-2.2c0,0-1.77,4.173-3.54,4.849s-1.179,2.952,2.821,2.121,10.028-1.518,10.028-1.518l.263-4.245,4.065-5.983s2.423-2.538-1.182-7.535v.869s.722,3.414-.131,3.942-4.643,9.166-4.643,9.166Z" transform="translate(-668.671 -502.788)" fill="#1d2366"/>
    <path id="Path_741" data-name="Path 741" d="M909.13,650.106a26.953,26.953,0,0,0,.388,3.415,35.684,35.684,0,0,0-9.378-.11v-3.38Z" transform="translate(-619.768 -425.664)" opacity="0.1"/>
    <path id="Path_742" data-name="Path 742" d="M1005.535,654.8s-5.254.3-11.519.357c-.177-1.9-.217-3.46-.217-3.46s3.54-5.691,10.028.455a7.923,7.923,0,0,1,1.356,1.7A10.1,10.1,0,0,0,1005.535,654.8Z" transform="translate(-682.675 -425.208)" opacity="0.1"/>
    <path id="Path_743" data-name="Path 743" d="M936.429,545.406s-23.011,1.286-30.024-.986-13.965-.3-15.012-.831-.2-8.787.722-10.831,5.963-22.725,5.963-22.725l4.853-29.236,5.112-1.628.361-.118,8.908-2.838,6.528-2.083S936.82,532.681,935.707,537a12.721,12.721,0,0,0-.19,5.08A14.134,14.134,0,0,0,936.429,545.406Z" transform="translate(-613.569 -316.498)" fill="#1d2366"/>
    <path id="Path_744" data-name="Path 744" d="M871.052,439s-4.6,5.691-1.116,8.862,5.769.3,5.769.3Z" transform="translate(-598.607 -294.696)" fill="#c7daf5"/>
    <path id="Path_745" data-name="Path 745" d="M871.052,439s-4.6,5.691-1.116,8.862,5.769.3,5.769.3Z" transform="translate(-598.607 -294.696)" opacity="0.1"/>
    <path id="Path_746" data-name="Path 746" d="M968.994,323.411s-.539.592-1.35,1.464c-1.156,1.248-2.867,3.073-4.383,4.6-2.1,2.113-3.835,3.665-3.215,2.341s.5-3.631.194-5.789c-.023-.144-.043-.288-.066-.429a44.968,44.968,0,0,0-1.015-4.689,79.271,79.271,0,0,1,5.273-7.068c.7-.759,1.189-1.07,1.218-.543a19.7,19.7,0,0,0,1.064,3.938c.016.053.033.1.053.156.381,1.138.811,2.307,1.188,3.316C968.534,322.258,968.994,323.411,968.994,323.411Z" transform="translate(-659.409 -216.523)" fill="#ffb0b1"/>
    <path id="Path_747" data-name="Path 747" d="M966.768,317.4a10.893,10.893,0,0,1-6.528,8.635,44.663,44.663,0,0,0-1.08-5.118s6.393-9.542,6.491-7.611A20.157,20.157,0,0,0,966.768,317.4Z" transform="translate(-659.409 -216.53)" opacity="0.1"/>
    <path id="Path_748" data-name="Path 748" d="M935.363,351.8l.828-1.347s.548,3.862,2.564,2.159,2.115,12.82,2.115,12.82l-2.164,37.381-15.636-1.081.443-18.063,1.77-9.105,4.377-13.237,2.6-4.374Z" transform="translate(-635.169 -239.741)" opacity="0.1"/>
    <path id="Path_749" data-name="Path 749" d="M940.89,366.007l-1.97,33.8-.207,3.581-8.718-.6-.328-.023-6.567-.455.443-18.066,1.77-9.105L929.69,361.9l2.6-4.374,3.1-5.171.827-1.343s.548,3.862,2.564,2.159l.043-.034h0C940.8,351.693,940.89,366.007,940.89,366.007Z" transform="translate(-635.19 -240.089)" fill="#1d2366"/>
    <path id="Path_750" data-name="Path 750" d="M889.063,406.26s-.785,1.9-2.361,1.59-1.573,6.829-1.573,6.829-1.047,1.138-1.77.152-2.627,2.348-2.627,2.348l-11.932.607s5.309,2.8,4.269,11.287c0,0,18.026-1.29,18.617-3.259S889.063,406.26,889.063,406.26Z" transform="translate(-598.719 -274.377)" fill="#fff"/>
    <path id="Path_751" data-name="Path 751" d="M889.063,406.26s-.785,1.9-2.361,1.59-1.573,6.829-1.573,6.829-1.047,1.138-1.77.152-2.627,2.348-2.627,2.348l-11.932.607s5.309,2.8,4.269,11.287c0,0,18.026-1.29,18.617-3.259S889.063,406.26,889.063,406.26Z" transform="translate(-598.719 -274.377)" opacity="0.03"/>
    <path id="Path_752" data-name="Path 752" d="M777.66,389.76l3.146,3.1L806.7,399.15l-3.211-3.786Z" transform="translate(-521.993 -241.894)" fill="#fff"/>
    <path id="Path_753" data-name="Path 753" d="M922.315,351.347a84.048,84.048,0,0,0-2.689,8.035c-.857,2.826-1.573,5.311-1.573,5.311s-1.671,12.573-2.525,14.845-.391,11.135-.391,11.135l-3.182,21.887s-1.441,11.287-3.668,18.029c-2.2,6.635-4.643,9.746-4.718,9.845.985-1.54,6.354-31.869,6.354-31.869l1.773-38.25s.259-3.635.522-6.742,5.582-7.349,5.582-7.349l5.129-8.426C923.445,348.6,923.1,349.985,922.315,351.347Z" transform="translate(-622.072 -238.096)" fill="#fff"/>
    <path id="Path_754" data-name="Path 754" d="M895.592,472.995s-7.552-.379-11.21-5.456,8.455-2.026,8.455-2.026l3.149.835Z" transform="translate(-608.722 -310.587)" fill="#ffb0b1"/>
    <path id="Path_755" data-name="Path 755" d="M970.753,463.959a12.724,12.724,0,0,0-.19,5.08c-8.238.675-17.051-1.9-17.051-1.9a37.844,37.844,0,0,1-5.966,4.317l-2.358-33.765c-1.507-4.553-2.1-28.4-2.1-28.4s.135-1.248.328-3.119a.41.41,0,0,1,.016-.14c.588-5.224,1.753-15.031,2.325-16.355.788-1.821-2.423-6.666-2.423-6.666l1.461-14.4.177-1.738c3.08-1.59,5.441-6.666,5.441-6.666l1.813-3.669h0c1.97-1.461,2.072,12.854,2.072,12.854l-1.97,33.8,6.528-2.083S971.867,459.641,970.753,463.959Z" transform="translate(-648.616 -243.455)" opacity="0.1"/>
    <path id="Path_756" data-name="Path 756" d="M980.014,451.5c-8.98,5.152-25.3.379-25.3.379a37.849,37.849,0,0,1-5.966,4.317l-2.361-33.765c-1.5-4.553-2.095-28.4-2.095-28.4s1.9-17.8,2.686-19.614a3.34,3.34,0,0,0-.154-2.17,31.421,31.421,0,0,1-1.438-12.706l.63-6.188.174-1.734c3.083-1.593,5.444-6.67,5.444-6.67l1.642-3.323,3.021-6.123,1.432-2.9.243.254,1.855,1.942,1.97,1.9c2.571,2.5,7.014,6.912,9.305,9.61,2.016,2.375,2.653,11.613,2.837,18.567.121,4.579.049,8.168.049,8.168-2.032,3.866,3.284,34.9,3.284,34.9C978.507,413.941,980.014,451.5,980.014,451.5Z" transform="translate(-649.422 -228.663)" fill="#fff"/>
    <path id="Path_757" data-name="Path 757" d="M944.066,364.065s-6.163,13.556-5.447,18.708,2.752,10.983,1.77,12.345a3.489,3.489,0,0,1-2.886,1.666c-.985.076-3.612,2.2-3.612,2.424s-2.427.228-4.6,1.29a25.569,25.569,0,0,1-5.375,1.665s-6.239-.228-6.82.455-1.179,4.769.066,8.028,2.627,5.691,3.671,6.135,7.67-2.121,13.045-2.728,11.21-5.528,11.21-5.528,6.426-2.656,7.552-7.121-1.376-29.008-1.376-29.008S949.375,360.957,944.066,364.065Z" transform="translate(-630.711 -247.858)" opacity="0.03"/>
    <path id="Path_758" data-name="Path 758" d="M941.685,361.066s-6.163,13.559-5.441,18.708,2.752,10.983,1.766,12.349a3.474,3.474,0,0,1-2.883,1.665c-.985.076-3.612,2.2-3.612,2.424s-2.427.228-4.6,1.286a25.819,25.819,0,0,1-5.375,1.665s-6.239-.228-6.817.455-1.182,4.773.066,8.028,2.627,5.691,3.671,6.135,7.67-2.121,13.045-2.724,11.21-5.531,11.21-5.531,6.422-2.656,7.536-7.117-1.376-29.012-1.376-29.012S946.995,357.963,941.685,361.066Z" transform="translate(-629.119 -245.998)" opacity="0.03"/>
    <path id="Path_759" data-name="Path 759" d="M943.489,362.273s-6.163,13.559-5.441,18.708,2.752,10.983,1.77,12.345A3.475,3.475,0,0,1,936.932,395c-.985.076-3.612,2.2-3.612,2.42s-2.423.228-4.6,1.29a25.624,25.624,0,0,1-5.375,1.665s-6.239-.228-6.82.455-1.179,4.773.066,8.028,2.627,5.691,3.671,6.135,7.67-2.121,13.045-2.728,11.21-5.528,11.21-5.528,6.426-2.656,7.552-7.121-1.359-29.008-1.359-29.008S948.8,359.185,943.489,362.273Z" transform="translate(-630.329 -246.75)" fill="#fff"/>
    <path id="Path_760" data-name="Path 760" d="M992.28,458.446s-4.925-1.138-3.211.759,1.7,3.559,3.8,3.483S992.28,458.446,992.28,458.446Z" transform="translate(-679.254 -306.555)" opacity="0.1"/>
    <path id="Path_761" data-name="Path 761" d="M1023.75,566.58s-2.226,1.741,2.032,5.755S1023.75,566.58,1023.75,566.58Z" transform="translate(-702.401 -373.874)" opacity="0.1"/>
    <path id="Path_762" data-name="Path 762" d="M1011.8,604.31c0,.228-.788,8.346,2.161,10.376S1011.8,604.31,1011.8,604.31Z" transform="translate(-694.704 -397.29)" opacity="0.1"/>
    <path id="Path_763" data-name="Path 763" d="M857.973,436.59c-2.377.095-7.513.933-4.85,6.673,2.354,5.08,6.311,1.685,8.537-.892a9.71,9.71,0,0,0-3.687-5.782Z" transform="translate(-587.688 -293.201)" fill="#ffb0b1"/>
    <path id="Path_764" data-name="Path 764" d="M881.39,451Z" transform="translate(-607.175 -302.144)" fill="#ffb0b1"/>
    <path id="Path_765" data-name="Path 765" d="M880.74,451.518l.1-.118Z" transform="translate(-606.738 -302.392)" fill="#ffb0b1"/>
    <path id="Path_766" data-name="Path 766" d="M965.32,337.291c-2.522,1.992-4.636,3.672-5.05,4.022-1.129.967-3.283,6.647-4.672,9.545-1.107,2.333-4.7,2.933-6.058,3.081l.174-1.734c3.083-1.593,5.444-6.67,5.444-6.67l6.094-12.345,2.1,2.2Z" transform="translate(-652.948 -229.029)" opacity="0.1"/>
    <path id="Path_767" data-name="Path 767" d="M965.32,336.691c-2.522,1.992-4.636,3.672-5.05,4.025-1.129.964-3.283,6.643-4.672,9.542-1.107,2.333-4.7,2.933-6.058,3.081l.174-1.734c3.083-1.593,5.444-6.67,5.444-6.67l6.094-12.345,2.1,2.2S964.138,335.538,965.32,336.691Z" transform="translate(-652.948 -228.657)" fill="#dce7ff"/>
    <path id="Path_768" data-name="Path 768" d="M942.975,299.514a12.489,12.489,0,0,1-1.714,6.378c-2.728,4.584-7.945,6.177-12.276,3.749s-6.477-8.149-5.05-13.461,6-8.622,10.76-7.788,8.278,5.561,8.279,11.124Z" transform="translate(-635.455 -201.147)" fill="#ffb0b1"/>
    <path id="Path_769" data-name="Path 769" d="M961.417,337.358a9.584,9.584,0,0,1-3.142-3.9c-.548-1.252-.913-2.7-1.849-3.585a7.589,7.589,0,0,0-3.021-1.347,9.982,9.982,0,0,1-6.459-8.98c-.052-1.958.476-3.912.236-5.85a7.046,7.046,0,0,0-1.1-3.016,9.957,9.957,0,0,0-.949-1.18c-.46-.5-.942-.986-1.363-1.518a5.928,5.928,0,0,1-.69-1.081,5.649,5.649,0,0,1-.378-1.005c-.657-2.322-.059-5.076-.781-7.425l-.039-.129c-.273-.835-.828-1.669-1.6-1.734s-1.432.675-2.167,1.005c-1.54.69-3.2-.486-4.485-1.685s-2.732-2.568-4.364-2.3c-1.08.178-1.934,1.028-2.929,1.468a3.7,3.7,0,0,1-.693.231c1.737-5,6.3-7.881,10.884-6.858s7.89,5.659,7.888,11.05a12.808,12.808,0,0,1-.213,2.348c.016.053.033.1.052.156.381,1.138.811,2.307,1.189,3.316l1.855,1.942,1.97,1.9c2.571,2.5,7.014,6.912,9.305,9.61C960.6,321.169,961.227,330.4,961.417,337.358Z" transform="translate(-636.902 -201.146)" opacity="0.1"/>
    <path id="Path_770" data-name="Path 770" d="M921.9,274.038c.469-1.1.7-2.341,1.264-3.388a7.112,7.112,0,0,1,3.74-3.077c3.858-1.536,12.011-3.767,14.447,0a8.049,8.049,0,0,0,1.54,2.125,10.753,10.753,0,0,0,1.671.869,7.308,7.308,0,0,1,3.073,4.553c.529,1.874.686,3.885,1.074,5.816a47.285,47.285,0,0,0,2.233,7.159c1.021,2.754,2.1,5.611,4.075,7.557,2.689,2.656,3.283,6.415,5.779,9.329,2.955,3.46,2.86,9.17,1.336,13.7a4.259,4.259,0,0,0-.348,1.851,3.789,3.789,0,0,0,.87,1.715l1.615,2.106c-3.822,1.066-8.146-1.241-9.926-5.289-.548-1.252-.913-2.694-1.852-3.585a7.571,7.571,0,0,0-3.018-1.343,10,10,0,0,1-6.459-8.988c-.052-1.954.476-3.908.236-5.843a7.014,7.014,0,0,0-1.1-3.035c-.9-1.362-2.266-2.276-3-3.794-1.244-2.538-.3-5.835-1.2-8.559-.276-.835-.827-1.669-1.6-1.734s-1.432.675-2.17,1.005c-1.537.69-3.2-.482-4.482-1.684s-2.732-2.569-4.367-2.3c-1.08.174-1.931,1.024-2.926,1.468-.736.326-2.226.618-2.87-.1C918.18,279.133,921.329,275.389,921.9,274.038Z" transform="translate(-632.572 -187.022)" fill="#591d4b"/>
    <path id="Path_771" data-name="Path 771" d="M955.109,323.852c-.552-1.252-.913-2.694-1.852-3.581a7.571,7.571,0,0,0-3.021-1.347,10,10,0,0,1-6.459-8.984c-.053-1.954.476-3.911.24-5.846a7.052,7.052,0,0,0-1.1-3.016c-.906-1.362-2.269-2.276-3-3.794-1.244-2.534-.3-5.831-1.2-8.559-.272-.831-.827-1.665-1.6-1.734s-1.435.679-2.17,1.009c-1.537.69-3.2-.486-4.482-1.685s-2.735-2.568-4.367-2.3c-1.08.178-1.934,1.028-2.926,1.468-.735.326-2.229.622-2.873-.095-1.353-1.518,1.8-5.255,2.361-6.6.47-1.108.7-2.341,1.267-3.388.03-.057.062-.114.1-.171a5.844,5.844,0,0,0-1.08,1.419c-.562,1.047-.795,2.276-1.264,3.388-.568,1.343-3.717,5.091-2.361,6.6.657.721,2.134.425,2.87.1.985-.444,1.845-1.294,2.926-1.468,1.642-.269,3.086,1.1,4.367,2.3s2.955,2.375,4.485,1.684c.735-.33,1.379-1.074,2.167-1.005s1.313.9,1.6,1.734c.9,2.724-.049,6.021,1.2,8.559.735,1.491,2.1,2.424,3,3.794a7.014,7.014,0,0,1,1.1,3.035c.24,1.935-.289,3.889-.236,5.843a9.98,9.98,0,0,0,6.459,8.988,7.612,7.612,0,0,1,3.017,1.343c.942.892,1.313,2.333,1.852,3.585,1.78,4.048,6.1,6.355,9.926,5.289l-.762-.994A9.073,9.073,0,0,1,955.109,323.852Z" transform="translate(-632.427 -193.059)" opacity="0.1"/>
    <path id="Path_772" data-name="Path 772" d="M950.8,351.885a84.04,84.04,0,0,0-2.689,8.035c-.962-.433-1.835-3.191-1.835-3.191l5.129-8.43C951.934,349.135,951.589,350.519,950.8,351.885Z" transform="translate(-650.758 -238.407)" opacity="0.1"/>
    <path id="Path_773" data-name="Path 773" d="M951.4,351.291a84,84,0,0,0-2.689,8.035c-.962-.429-1.836-3.191-1.836-3.191l5.129-8.426C952.534,348.541,952.189,349.929,951.4,351.291Z" transform="translate(-651.161 -238.041)" fill="#dce7ff"/>
    <path id="Path_774" data-name="Path 774" d="M863.942,440.3,861.1,429.935a1.1,1.1,0,0,1,.054-.74.881.881,0,0,1,.491-.478h0a.824.824,0,0,1,1.051.63l2.844,10.35-.282,2.166Z" transform="translate(-593.519 -288.287)" fill="#be8b87"/>
    <path id="Path_775" data-name="Path 775" d="M861.644,429.049h0a.824.824,0,0,1,1.054.63l2.844,10.35-.214,1.624.207.25.282-2.166-2.86-10.35a.824.824,0,0,0-1.051-.63h0a.865.865,0,0,0-.437.379A1.064,1.064,0,0,1,861.644,429.049Z" transform="translate(-593.796 -288.312)" fill="#fff" opacity="0.1"/>
    <path id="Path_776" data-name="Path 776" d="M822.6,399.724l1.6-.584-.233,1.776-.049.391-.466-.561Z" transform="translate(-552.177 -247.715)" fill="#efc8c4"/>
    <path id="Path_777" data-name="Path 777" d="M872.42,461.8a.344.344,0,0,1,.1-.1.128.128,0,0,1,.154,0,.5.5,0,0,1,.056.1.284.284,0,0,0,.2.156l-.049.379Z" transform="translate(-601.15 -308.767)" fill="#727a9c"/>
    <path id="Path_778" data-name="Path 778" d="M861.13,441.7s5.7-.038,4.36,2.766a5.206,5.206,0,0,1-3.441,3.141Z" transform="translate(-593.567 -296.372)" fill="#ffb0b1"/>
    <path id="Path_779" data-name="Path 779" d="M599.621,110.05h-.246c-9.8,0-18.463,5.991-23.447,14.83-4.984-8.84-13.65-14.83-23.448-14.83h-.246c-15.3.169-27.635,14.546-27.644,32.229,0,10.551,4,25.521,11.8,37.84,14.858,23.473,39.54,44.009,39.54,44.009s24.682-20.532,39.536-44.009c7.8-12.319,11.8-27.289,11.8-37.84C627.253,124.6,614.924,110.221,599.621,110.05ZM596.1,181.925a5.621,5.621,0,0,1-5.145-4.1h-5.858a1.9,1.9,0,0,1-1.744-1.457l-1.8-6.264-5.694,22.987a1.9,1.9,0,0,1-1.767,1.536h-.115a1.937,1.937,0,0,1-1.707-1.76L566.4,152.086l-4.288,24.129a1.9,1.9,0,0,1-1.776,1.6h-8.251a1.79,1.79,0,0,1-1.654-1.033,2.407,2.407,0,0,1,0-2.172,1.79,1.79,0,0,1,1.654-1.033h6.807l6.074-32.441a1.9,1.9,0,0,1,1.868-1.629,1.963,1.963,0,0,1,1.744,1.8l5.992,41.6,5.1-20.567a1.869,1.869,0,0,1,1.717-1.518h.036a1.878,1.878,0,0,1,1.74,1.457l3.254,11.31h4.459c.88-3.088,3.634-4.912,6.385-4.228s4.612,3.656,4.314,6.889-2.658,5.686-5.472,5.686Z" transform="translate(-367.53 -90.546)" fill="#002ddc"/>
  </g>
</svg>
