<svg xmlns="http://www.w3.org/2000/svg" width="170" height="118.331" viewBox="0 0 170 118.331">
  <g id="undraw_medical_care_movn" transform="translate(0 0)">
    <path id="Path_780" data-name="Path 780" d="M835.88,159.142l-13.114.128c-.616-3.035-2.687-11-.822-13.169a3.192,3.192,0,0,1,3.362-2.856h0c2.033-3.182,5.418-2.7,7.706-.717,2.3.795,3.171,2.206,2.868,4.122a4.481,4.481,0,0,1,1.255,5.377Z" transform="translate(-693.839 -140.947)" fill="#2f2e41"/>
    <path id="Path_781" data-name="Path 781" d="M843.409,229.006l-9.461-1.31-1.892-2.766c2.607-1.729,3.529-4.144,2.329-7.424l6.55-.146c-.307,2.92.659,5.182,3.348,6.55Z" transform="translate(-702.63 -202.732)" fill="#ffb9b9"/>
    <path id="Path_782" data-name="Path 782" d="M828.709,723.3l-.362,4.946a1.574,1.574,0,0,0,1.665,1.687l2.54-.154a.8.8,0,0,0,.73-1l-1.41-5.64Z" transform="translate(-699.629 -611.684)" fill="#e6e6e6"/>
    <path id="Path_783" data-name="Path 783" d="M867.159,723.14l-1.41,5.64a.8.8,0,0,0,.73,1l2.54.154a1.574,1.574,0,0,0,1.666-1.686l-.362-4.946Z" transform="translate(-729.854 -611.684)" fill="#e6e6e6"/>
    <path id="Path_784" data-name="Path 784" d="M662.057,371.432l-3.428-.344L655.216,334.6l-1.29,36.365-3.368-.121-5.677-50.364H666.57Z" transform="translate(-521.424 -259.131)" fill="#6c63ff"/>
    <circle id="Ellipse_1478" data-name="Ellipse 1478" cx="6.55" cy="6.55" r="6.55" transform="translate(128.843 4.003)" fill="#ffb9b9"/>
    <path id="Path_785" data-name="Path 785" d="M819.009,291.687l-26.492.291c3.932-14.967,6.283-28.87,2.183-38.428l6.55-3.2c3.158,3.294,6.676,2.955,10.48-.291l6.259,1.6A202.58,202.58,0,0,0,819.009,291.687Z" transform="translate(-670.661 -229.168)" fill="#6c63ff"/>
    <path id="Path_786" data-name="Path 786" d="M754.5,337.736l16.448,6.55,3.677,1.082a1.272,1.272,0,0,0,1.593-.912h0a1.272,1.272,0,0,0-.724-1.474l-3.818-1.17-11.5-6.7,2.4-6.332-5.022-2.693Z" transform="translate(-639.922 -290.646)" fill="#ffb9b9"/>
    <path id="Path_787" data-name="Path 787" d="M755.26,279.076a16.338,16.338,0,0,1,7.569,6.114l6.114-8.879-4.367-8.006Z" transform="translate(-640.537 -243.923)" fill="#6c63ff"/>
    <path id="Path_788" data-name="Path 788" d="M844.617,163.583a13.377,13.377,0,0,0-7.813.09,7.842,7.842,0,0,1-5.724.066V157.2l11.67.311Z" transform="translate(-701.842 -154.091)" fill="#2f2e41"/>
    <path id="Path_789" data-name="Path 789" d="M831.94,347.053a1.942,1.942,0,0,0-1.94,1.94l.766,16.03a1.942,1.942,0,0,0,1.94,1.94h8.755a1.942,1.942,0,0,0,1.94-1.94l.766-16.03a1.942,1.942,0,0,0-1.94-1.94Z" transform="translate(-700.968 -307.595)" fill="#3f3d56"/>
    <path id="Path_790" data-name="Path 790" d="M881.514,332.178l-14.337,5.709-1.082.431c-.034.013-.069.025-.105.036l-3.624,1.066c-.463.136-1.1-.488-1.48-.919a1.165,1.165,0,0,1-.031-1.518,1.29,1.29,0,0,1,.165-.159,1.07,1.07,0,0,1,.479-.211l3.62-.712a1.213,1.213,0,0,0,.37-.138l1.689-.984,8.766-5.1a1.19,1.19,0,0,0,.515-1.451l-1.673-4.413a1.189,1.189,0,0,1,.549-1.47l2.772-1.486a1.188,1.188,0,0,1,1.711.747l2.406,9.166A1.191,1.191,0,0,1,881.514,332.178Z" transform="translate(-725.702 -286.3)" fill="#ffb9b9"/>
    <path id="Path_791" data-name="Path 791" d="M916.45,269.483a16.338,16.338,0,0,0-7.569,6.114l-6.114-8.879,4.367-8.3Z" transform="translate(-759.805 -235.93)" fill="#6c63ff"/>
    <path id="Path_792" data-name="Path 792" d="M843.146,206.739a11.988,11.988,0,0,1-9,0c.91-1.553-.45-2.77-1.149-4.338l11.678-.347C843.785,203.416,842.467,205.025,843.146,206.739Z" transform="translate(-703.394 -190.355)" fill="#fff"/>
    <path id="Path_793" data-name="Path 793" d="M736.781,55.443l-.135-.135.191-.191,1.144-1.335.146.124-1.149,1.34Z" transform="translate(-595.621 -43.485)" fill="#fff"/>
    <rect id="Rectangle_5408" data-name="Rectangle 5408" width="0.192" height="1.495" transform="translate(128.682 11.294) rotate(-50.195)" fill="#fff"/>
    <rect id="Rectangle_5409" data-name="Rectangle 5409" width="3.744" height="0.191" transform="matrix(0.537, -0.844, 0.844, 0.537, 139.479, 16.242)" fill="#fff"/>
    <rect id="Rectangle_5410" data-name="Rectangle 5410" width="0.191" height="3.744" transform="translate(128.855 13.185) rotate(-32.471)" fill="#fff"/>
    <path id="Path_794" data-name="Path 794" d="M865.943,392.768v3.468l-1.207.481c-.038.015-.077.028-.117.041l-4.045,1.19c-.517.152-1.233-.545-1.652-1.026a1.3,1.3,0,0,1-.034-1.695,1.442,1.442,0,0,1,.184-.177,1.194,1.194,0,0,1,.534-.235l4.041-.795a1.353,1.353,0,0,0,.412-.154Z" transform="translate(-724.085 -344.559)" fill="#fff"/>
    <path id="Path_795" data-name="Path 795" d="M885.687,255.1h-.692c0-9.785-2.015-16.6-3.978-16.6l-.173-.692c1.761,0,2.883,2.838,3.515,5.219A49.259,49.259,0,0,1,885.687,255.1Z" transform="translate(-742.079 -219.263)" fill="#3f3d56"/>
    <path id="Path_796" data-name="Path 796" d="M820.1,254.141h-.692c0-8.961,2.029-14.528,5.016-14.528l-.173.692C822.188,240.305,820.1,244.583,820.1,254.141Z" transform="translate(-692.407 -220.724)" fill="#3f3d56"/>
    <circle id="Ellipse_1479" data-name="Ellipse 1479" cx="1.73" cy="1.73" r="1.73" transform="translate(141.532 34.282)" fill="#3f3d56"/>
    <path id="Path_797" data-name="Path 797" d="M805.648,318.191h-.692c0-2.48,1.4-4.5,3.113-4.5v.692C806.734,314.386,805.648,316.093,805.648,318.191Z" transform="translate(-680.719 -280.623)" fill="#3f3d56"/>
    <path id="Path_798" data-name="Path 798" d="M824.33,318.191h-.692c0-2.1-1.086-3.8-2.421-3.8v-.692C822.934,313.694,824.33,315.711,824.33,318.191Z" transform="translate(-693.867 -280.623)" fill="#3f3d56"/>
    <circle id="Ellipse_1480" data-name="Ellipse 1480" cx="0.692" cy="0.692" r="0.692" transform="translate(129.426 37.049)" fill="#3f3d56"/>
    <circle id="Ellipse_1481" data-name="Ellipse 1481" cx="0.692" cy="0.692" r="0.692" transform="translate(123.891 37.049)" fill="#3f3d56"/>
    <path id="Path_799" data-name="Path 799" d="M306.973,158.759l-12.15,2.058a1.23,1.23,0,0,1-1.392-.883c-.878-3.168-2.713-7.3-.931-9.376a3.409,3.409,0,0,1,3.591-3.05h0c2.171-3.4,5.786-2.887,8.229-.766,2.459.849,3.386,2.356,3.062,4.4a4.734,4.734,0,0,1,1.737,3.127,4.516,4.516,0,0,1-1.236,3.513Z" transform="translate(-265.761 -144.267)" fill="#2f2e41"/>
    <path id="Path_800" data-name="Path 800" d="M321.622,238.528l-9.419-.554a10.351,10.351,0,0,0,.923-6.095h7.018A29.749,29.749,0,0,0,321.622,238.528Z" transform="translate(-282.299 -214.471)" fill="#9f616a"/>
    <path id="Path_801" data-name="Path 801" d="M300.529,720.522l-.386,5.281a1.681,1.681,0,0,0,1.779,1.8l2.713-.164a.858.858,0,0,0,.78-1.064l-1.506-6.023Z" transform="translate(-272.544 -609.43)" fill="#e6e6e6"/>
    <path id="Path_802" data-name="Path 802" d="M341.587,720.353l-1.506,6.023a.858.858,0,0,0,.78,1.064l2.713.164a1.681,1.681,0,0,0,1.779-1.8l-.386-5.281Z" transform="translate(-304.82 -609.43)" fill="#e6e6e6"/>
    <path id="Path_803" data-name="Path 803" d="M133.154,354.347l-3.661-.367-3.645-38.958-1.377,38.833-3.6-.129-6.062-53.781h23.16Z" transform="translate(-92.833 -242.522)" fill="#6c63ff"/>
    <circle id="Ellipse_1482" data-name="Ellipse 1482" cx="6.995" cy="6.995" r="6.995" transform="translate(27.527 5.661)" fill="#9f616a"/>
    <path id="Path_804" data-name="Path 804" d="M316.448,170.153a20.882,20.882,0,0,0-8.343.065,12.153,12.153,0,0,1-6.112.047v-4.717l12.462.225Z" transform="translate(-274.044 -160.838)" fill="#2f2e41"/>
    <path id="Path_805" data-name="Path 805" d="M314.878,215.24a12.8,12.8,0,0,1-9.608,0c.972-1.659-.481-2.958-1.227-4.632l12.47-.371C315.56,211.692,314.153,213.411,314.878,215.24Z" transform="translate(-275.702 -196.972)" fill="#fff"/>
    <rect id="Rectangle_5411" data-name="Rectangle 5411" width="0.192" height="1.597" transform="translate(27.361 12.828) rotate(-50.195)" fill="#fff"/>
    <rect id="Rectangle_5412" data-name="Rectangle 5412" width="3.998" height="0.191" transform="matrix(0.537, -0.844, 0.844, 0.537, 38.891, 18.12)" fill="#fff"/>
    <rect id="Rectangle_5413" data-name="Rectangle 5413" width="0.191" height="3.998" transform="translate(27.545 14.85) rotate(-32.471)" fill="#fff"/>
    <path id="Path_806" data-name="Path 806" d="M244.24,285.55l-5.356-3.324,4.568-13.378a6.311,6.311,0,0,1,2.759-3.277l1.539-.891.134,13.5Z" transform="translate(-223.017 -240.992)" fill="#6c63ff"/>
    <path id="Path_807" data-name="Path 807" d="M285.539,279.567l-.792-6.787a23.811,23.811,0,0,1,2.02-10.237l.739-9.973-8.126-3.324c-.025.166-.046.331-.07.5l-3.809,1.9-3.714-.844.021-1.187-7.387,3.324c2.443,11.358,1.111,23.153-3.091,37.084l9.732,2.661.081-4.673,8.674-.62c.089,1.516.161,3.005.2,4.462,4.894,1.8,5.062,1.772,9.522-.808A52.328,52.328,0,0,1,285.539,279.567Z" transform="translate(-241.165 -228.512)" fill="#6c63ff"/>
    <path id="Path_808" data-name="Path 808" d="M242.3,144.5l-4.986-1.662-7.976-9.285,2.436-7.89,11.081,15.514Z" transform="translate(-185.435 -101.606)" fill="#6c63ff"/>
    <path id="Path_809" data-name="Path 809" d="M371.273,391.514a1.387,1.387,0,0,0,1.657,1.045l4.233-.959-.612-2.7-4.233.958A1.385,1.385,0,0,0,371.273,391.514Z" transform="translate(-330.033 -341.43)" fill="#e6e6e6"/>
    <path id="Path_810" data-name="Path 810" d="M391.309,355.033l2.4,4.432c4.038-1.126,7.538-4.677,10.9-8.865l-.923-2.955-5.725,1.478Z" transform="translate(-346.261 -308.075)" fill="#6c63ff"/>
    <path id="Path_811" data-name="Path 811" d="M71.79,172.661l4.609.823,10.535,14.98-5.6-1.317Z" transform="translate(-58.046 -139.606)" fill="#e6e6e6"/>
    <path id="Path_812" data-name="Path 812" d="M221.889,312.65a.392.392,0,0,0-.322.607l9.848,14.941a.391.391,0,0,0,.237.166l4.582,1.078a.391.391,0,0,0,.41-.606l-10.812-15.373a.389.389,0,0,0-.251-.16l-3.617-.646A.426.426,0,0,0,221.889,312.65Z" transform="translate(-208.963 -279.779)" fill="#3f3d56"/>
    <path id="Path_813" data-name="Path 813" d="M255.608,366.612l.274,2.757,4.319-.429a1.385,1.385,0,0,0-.274-2.757Z" transform="translate(-236.539 -323.058)" fill="#e6e6e6"/>
    <path id="Path_814" data-name="Path 814" d="M235.991,357.025a3.563,3.563,0,0,0,3.558,3.539h.71l.517-4.308-4.281-1.541Z" transform="translate(-220.677 -313.79)" fill="#6c63ff"/>
    <path id="Path_815" data-name="Path 815" d="M210.827,64.323l-.135-.135.2-.2,1.222-1.426.145.124-1.227,1.431Z" transform="translate(-170.357 -50.581)" fill="#fff"/>
    <rect id="Rectangle_5414" data-name="Rectangle 5414" width="170" height="0.383" transform="translate(0 117.949)" fill="#3f3d56"/>
    <path id="Path_816" data-name="Path 816" d="M495,530.323h40.2V481.559c0-2.582-2.543-4.683-5.669-4.683H500.669c-3.126,0-5.669,2.1-5.669,4.683Z" transform="translate(-430.101 -412.565)" fill="#e6e6e6"/>
    <path id="Path_817" data-name="Path 817" d="M511,554.186h34.077V512.853c0-2.189-2.156-3.969-4.805-3.969H515.806c-2.65,0-4.806,1.781-4.806,3.969Z" transform="translate(-443.038 -438.445)" fill="#fff"/>
    <path id="Path_818" data-name="Path 818" d="M485.8,457.053a1.67,1.67,0,0,0-1.8,1.489v4.3a1.67,1.67,0,0,0,1.8,1.489h40.81a1.67,1.67,0,0,0,1.8-1.489v-4.3a1.67,1.67,0,0,0-1.8-1.489Z" transform="translate(-421.208 -396.537)" fill="#3f3d56"/>
    <path id="Path_819" data-name="Path 819" d="M529.745,717.836a1.766,1.766,0,0,0-1.761,1.761h0a1.766,1.766,0,0,0,1.761,1.761h3.3v-3.521Z" transform="translate(-456.771 -607.395)" fill="#3f3d56"/>
    <path id="Path_820" data-name="Path 820" d="M556.657,717.836h-3.205v3.521h3.205a1.766,1.766,0,0,0,1.761-1.761h0A1.766,1.766,0,0,0,556.657,717.836Z" transform="translate(-477.363 -607.395)" fill="#6c63ff"/>
    <path id="Path_821" data-name="Path 821" d="M557.806,720.088a1.751,1.751,0,0,1,.431,1.149h0A1.766,1.766,0,0,1,556.477,723h-3.025v.181h3.205a1.766,1.766,0,0,0,1.761-1.761h0A1.757,1.757,0,0,0,557.806,720.088Z" transform="translate(-477.363 -609.216)" opacity="0.2"/>
    <path id="Path_822" data-name="Path 822" d="M602.023,576.984a1.766,1.766,0,0,0-2.489-.073h0a1.766,1.766,0,0,0-.073,2.489l2.26,2.4,2.562-2.415Z" transform="translate(-514.178 -493.062)" fill="#3f3d56"/>
    <path id="Path_823" data-name="Path 823" d="M617.4,593.481l-2.2-2.332-2.562,2.415,2.2,2.332a1.766,1.766,0,0,0,2.489.073h0A1.766,1.766,0,0,0,617.4,593.481Z" transform="translate(-525.219 -504.961)" fill="#6c63ff"/>
    <path id="Path_824" data-name="Path 824" d="M617.873,604.292a1.75,1.75,0,0,1-.54,1.1h0a1.766,1.766,0,0,1-2.489-.073l-2.075-2.2-.131.124,2.2,2.332a1.766,1.766,0,0,0,2.489.074h0A1.756,1.756,0,0,0,617.873,604.292Z" transform="translate(-525.218 -514.64)" opacity="0.2"/>
    <path id="Path_825" data-name="Path 825" d="M553.023,605.984a1.766,1.766,0,0,0-2.489-.073h0a1.766,1.766,0,0,0-.074,2.489l2.26,2.4,2.562-2.415Z" transform="translate(-474.559 -516.511)" fill="#3f3d56"/>
    <path id="Path_826" data-name="Path 826" d="M568.4,622.481l-2.2-2.332-2.562,2.415,2.2,2.332a1.766,1.766,0,0,0,2.489.073h0A1.766,1.766,0,0,0,568.4,622.481Z" transform="translate(-485.599 -528.409)" fill="#6c63ff"/>
    <path id="Path_827" data-name="Path 827" d="M568.873,633.292a1.75,1.75,0,0,1-.54,1.1h0a1.766,1.766,0,0,1-2.489-.074l-2.075-2.2-.131.124,2.2,2.332a1.766,1.766,0,0,0,2.489.074h0a1.757,1.757,0,0,0,.548-1.357Z" transform="translate(-485.599 -538.088)" opacity="0.2"/>
    <path id="Path_828" data-name="Path 828" d="M602.023,632.984a1.766,1.766,0,0,0-2.489-.073h0a1.766,1.766,0,0,0-.073,2.489l2.261,2.4,2.562-2.415Z" transform="translate(-514.178 -538.342)" fill="#3f3d56"/>
    <path id="Path_829" data-name="Path 829" d="M617.4,649.481l-2.2-2.332-2.562,2.415,2.2,2.332a1.766,1.766,0,0,0,2.489.073h0A1.766,1.766,0,0,0,617.4,649.481Z" transform="translate(-525.219 -550.24)" fill="#6c63ff"/>
    <path id="Path_830" data-name="Path 830" d="M617.873,660.292a1.75,1.75,0,0,1-.54,1.1h0a1.766,1.766,0,0,1-2.489-.073l-2.075-2.2-.131.124,2.2,2.332a1.766,1.766,0,0,0,2.489.073h0A1.756,1.756,0,0,0,617.873,660.292Z" transform="translate(-525.218 -559.919)" opacity="0.2"/>
    <path id="Path_831" data-name="Path 831" d="M624.411,680a1.766,1.766,0,0,0,.043-2.49h0a1.766,1.766,0,0,0-2.49-.043l-2.37,2.289,2.446,2.533Z" transform="translate(-530.843 -574.358)" fill="#3f3d56"/>
    <path id="Path_832" data-name="Path 832" d="M608.415,695.61l2.305-2.227-2.446-2.533-2.305,2.227a1.766,1.766,0,0,0-.043,2.49h0A1.766,1.766,0,0,0,608.415,695.61Z" transform="translate(-519.393 -585.576)" fill="#6c63ff"/>
    <path id="Path_833" data-name="Path 833" d="M607.289,696.1a1.751,1.751,0,0,1-1.108-.527h0a1.766,1.766,0,0,1,.043-2.49l2.176-2.1-.125-.13-2.306,2.227a1.766,1.766,0,0,0-.043,2.49h0A1.757,1.757,0,0,0,607.289,696.1Z" transform="translate(-519.393 -585.576)" opacity="0.2"/>
    <path id="Path_834" data-name="Path 834" d="M558.411,651a1.766,1.766,0,0,0,.043-2.49h0a1.766,1.766,0,0,0-2.49-.043l-2.37,2.289,2.446,2.533Z" transform="translate(-477.478 -550.91)" fill="#3f3d56"/>
    <path id="Path_835" data-name="Path 835" d="M542.415,666.61l2.305-2.227-2.446-2.533-2.305,2.227a1.766,1.766,0,0,0-.043,2.49h0A1.766,1.766,0,0,0,542.415,666.61Z" transform="translate(-466.028 -562.128)" fill="#6c63ff"/>
    <path id="Path_836" data-name="Path 836" d="M541.289,667.1a1.751,1.751,0,0,1-1.108-.527h0a1.766,1.766,0,0,1,.043-2.49l2.176-2.1-.125-.13-2.305,2.227a1.766,1.766,0,0,0-.043,2.49h0A1.757,1.757,0,0,0,541.289,667.1Z" transform="translate(-466.028 -562.128)" opacity="0.2"/>
    <path id="Path_837" data-name="Path 837" d="M652.411,616a1.766,1.766,0,0,0,.043-2.49h0a1.766,1.766,0,0,0-2.49-.043l-2.37,2.289,2.446,2.533Z" transform="translate(-553.483 -522.61)" fill="#3f3d56"/>
    <path id="Path_838" data-name="Path 838" d="M636.415,631.61l2.305-2.227-2.446-2.533-2.305,2.227a1.766,1.766,0,0,0-.043,2.49h0A1.766,1.766,0,0,0,636.415,631.61Z" transform="translate(-542.033 -533.828)" fill="#6c63ff"/>
    <path id="Path_839" data-name="Path 839" d="M635.289,632.1a1.751,1.751,0,0,1-1.108-.527h0a1.766,1.766,0,0,1,.043-2.49l2.176-2.1-.125-.13-2.305,2.227a1.766,1.766,0,0,0-.043,2.49h0A1.757,1.757,0,0,0,635.289,632.1Z" transform="translate(-542.033 -533.828)" opacity="0.2"/>
    <path id="Path_840" data-name="Path 840" d="M639.023,698.984a1.766,1.766,0,0,0-2.489-.074h0a1.766,1.766,0,0,0-.073,2.489l2.261,2.4,2.562-2.415Z" transform="translate(-544.095 -591.706)" fill="#3f3d56"/>
    <path id="Path_841" data-name="Path 841" d="M654.4,715.481l-2.2-2.332-2.562,2.415,2.2,2.332a1.766,1.766,0,0,0,2.489.073h0A1.766,1.766,0,0,0,654.4,715.481Z" transform="translate(-555.135 -603.605)" fill="#6c63ff"/>
    <path id="Path_842" data-name="Path 842" d="M654.873,726.292a1.75,1.75,0,0,1-.54,1.1h0a1.766,1.766,0,0,1-2.489-.073l-2.075-2.2-.131.124,2.2,2.332a1.766,1.766,0,0,0,2.489.073h0A1.756,1.756,0,0,0,654.873,726.292Z" transform="translate(-555.135 -613.284)" opacity="0.2"/>
    <path id="Path_843" data-name="Path 843" d="M574.023,697.983a1.766,1.766,0,0,0-2.489-.074h0a1.766,1.766,0,0,0-.074,2.489l2.261,2.4,2.562-2.415Z" transform="translate(-491.538 -590.898)" fill="#3f3d56"/>
    <path id="Path_844" data-name="Path 844" d="M589.4,714.481l-2.2-2.332-2.562,2.415,2.2,2.332a1.766,1.766,0,0,0,2.489.073h0A1.766,1.766,0,0,0,589.4,714.481Z" transform="translate(-502.579 -602.797)" fill="#6c63ff"/>
    <path id="Path_845" data-name="Path 845" d="M589.873,725.292a1.751,1.751,0,0,1-.54,1.1h0a1.766,1.766,0,0,1-2.489-.073l-2.075-2.2-.131.124,2.2,2.332a1.766,1.766,0,0,0,2.489.073h0A1.757,1.757,0,0,0,589.873,725.292Z" transform="translate(-502.579 -612.475)" opacity="0.2"/>
    <path id="Path_846" data-name="Path 846" d="M583.71,656.592a2.539,2.539,0,1,1-2.031-2.488,2.539,2.539,0,0,1,2.031,2.488Z" transform="translate(-497.722 -555.823)" fill="#6c63ff"/>
    <path id="Path_847" data-name="Path 847" d="M590.257,654.1v4.977a2.563,2.563,0,0,1-1.016,0V654.1A2.563,2.563,0,0,1,590.257,654.1Z" transform="translate(-506.301 -555.823)" opacity="0.2"/>
    <path id="Path_848" data-name="Path 848" d="M589.71,603.592a2.539,2.539,0,1,1-2.031-2.488,2.539,2.539,0,0,1,2.031,2.488Z" transform="translate(-502.574 -512.969)" fill="#6c63ff"/>
    <path id="Path_849" data-name="Path 849" d="M596.257,601.1v4.977a2.563,2.563,0,0,1-1.016,0V601.1A2.563,2.563,0,0,1,596.257,601.1Z" transform="translate(-511.153 -512.969)" opacity="0.2"/>
    <path id="Path_850" data-name="Path 850" d="M589.71,679.592a2.539,2.539,0,0,1-2.032,2.489,2.54,2.54,0,1,1,0-4.977A2.539,2.539,0,0,1,589.71,679.592Z" transform="translate(-502.573 -574.42)" fill="#6c63ff"/>
    <path id="Path_851" data-name="Path 851" d="M596.257,677.1v4.977a2.563,2.563,0,0,1-1.016,0V677.1A2.563,2.563,0,0,1,596.257,677.1Z" transform="translate(-511.153 -574.42)" opacity="0.2"/>
    <path id="Path_852" data-name="Path 852" d="M622.71,716.592a2.539,2.539,0,1,1-3.047-2.488,2.568,2.568,0,0,1,1.016,0A2.539,2.539,0,0,1,622.71,716.592Z" transform="translate(-529.256 -604.336)" fill="#6c63ff"/>
    <path id="Path_853" data-name="Path 853" d="M629.257,714.1v4.977a2.564,2.564,0,0,1-1.016,0V714.1A2.567,2.567,0,0,1,629.257,714.1Z" transform="translate(-537.835 -604.336)" opacity="0.2"/>
    <path id="Path_854" data-name="Path 854" d="M655.143,656.236a2.539,2.539,0,1,1-3.2-.264A2.539,2.539,0,0,1,655.143,656.236Z" transform="translate(-556.108 -557.013)" fill="#6c63ff"/>
    <path id="Path_855" data-name="Path 855" d="M653.611,657.86l3.583,3.454a2.564,2.564,0,0,1-.7.731l-3.583-3.454A2.564,2.564,0,0,1,653.611,657.86Z" transform="translate(-557.778 -558.901)" opacity="0.2"/>
    <path id="Path_856" data-name="Path 856" d="M659.143,685.236a2.539,2.539,0,1,1-3.906.467,2.566,2.566,0,0,1,.7-.731,2.539,2.539,0,0,1,3.2.264Z" transform="translate(-559.342 -580.461)" fill="#6c63ff"/>
    <path id="Path_857" data-name="Path 857" d="M657.611,686.86l3.583,3.454a2.562,2.562,0,0,1-.7.731l-3.583-3.454A2.565,2.565,0,0,1,657.611,686.86Z" transform="translate(-561.012 -582.349)" opacity="0.2"/>
    <path id="Path_858" data-name="Path 858" d="M540.143,692.236a2.539,2.539,0,1,1-3.2-.264A2.539,2.539,0,0,1,540.143,692.236Z" transform="translate(-463.124 -586.121)" fill="#6c63ff"/>
    <path id="Path_859" data-name="Path 859" d="M538.611,693.86l3.583,3.454a2.562,2.562,0,0,1-.7.731l-3.583-3.454a2.566,2.566,0,0,1,.7-.731Z" transform="translate(-464.794 -588.009)" opacity="0.2"/>
    <rect id="Rectangle_5415" data-name="Rectangle 5415" width="0.957" height="7.083" transform="translate(67.866 60.516)" opacity="0.2"/>
    <rect id="Rectangle_5416" data-name="Rectangle 5416" width="0.957" height="7.083" transform="translate(73.418 60.516)" opacity="0.2"/>
    <rect id="Rectangle_5417" data-name="Rectangle 5417" width="0.957" height="7.083" transform="translate(78.97 60.516)" opacity="0.2"/>
    <rect id="Rectangle_5418" data-name="Rectangle 5418" width="0.957" height="7.083" transform="translate(84.521 60.516)" opacity="0.2"/>
    <rect id="Rectangle_5419" data-name="Rectangle 5419" width="0.957" height="7.083" transform="translate(90.073 60.516)" opacity="0.2"/>
    <rect id="Rectangle_5420" data-name="Rectangle 5420" width="0.957" height="7.083" transform="translate(95.625 60.516)" opacity="0.2"/>
    <rect id="Rectangle_5421" data-name="Rectangle 5421" width="0.957" height="7.083" transform="translate(101.177 60.516)" opacity="0.2"/>
  </g>
</svg>
